<svg width="14" height="15" viewBox="0 0 14 15" fill="none" xmlns="http://www.w3.org/2000/svg">
<g clip-path="url(#clip0_15:2140)">
<path d="M7 0.673828C3.1325 0.673828 0 3.80808 0 7.67383C0 10.7672 2.0055 13.3905 4.78625 14.3151C5.13625 14.381 5.26458 14.1646 5.26458 13.9785C5.26458 13.8122 5.25875 13.3718 5.25583 12.7885C3.30867 13.2108 2.898 11.8493 2.898 11.8493C2.5795 11.0414 2.11925 10.8256 2.11925 10.8256C1.48517 10.3916 2.16825 10.4003 2.16825 10.4003C2.87117 10.4493 3.24042 11.1213 3.24042 11.1213C3.86458 12.1917 4.879 11.8826 5.27917 11.7035C5.34217 11.2508 5.52242 10.9422 5.7225 10.7672C4.16792 10.5922 2.534 9.99025 2.534 7.30808C2.534 6.54391 2.80525 5.91974 3.25442 5.42975C3.17567 5.253 2.93942 4.54133 3.31567 3.57708C3.31567 3.57708 3.90192 3.38925 5.24067 4.29458C5.80067 4.13883 6.39567 4.06183 6.99067 4.05833C7.58567 4.06183 8.18067 4.13883 8.74067 4.29458C10.0707 3.38925 10.6569 3.57708 10.6569 3.57708C11.0332 4.54133 10.7969 5.253 10.7269 5.42975C11.1732 5.91974 11.4444 6.54391 11.4444 7.30808C11.4444 9.99725 9.80817 10.5893 8.25067 10.7614C8.49567 10.9714 8.72317 11.4007 8.72317 12.0564C8.72317 12.9932 8.71442 13.7457 8.71442 13.9732C8.71442 14.157 8.83692 14.3757 9.19567 14.3057C11.9962 13.3876 14 10.7626 14 7.67383C14 3.80808 10.8657 0.673828 7 0.673828Z" fill="#007BAF"/>
</g>
<defs>
<clipPath id="clip0_15:2140">
<rect width="14" height="14" fill="white" transform="translate(0 0.5)"/>
</clipPath>
</defs>
</svg>
