<svg width="137" height="242" viewBox="0 0 137 242" fill="none" xmlns="http://www.w3.org/2000/svg">
<path d="M76.2456 33.2198C76.2456 33.2198 69.6978 27.5581 69.1464 27.7521C68.5948 27.9468 69.7303 31.6347 72.2255 33.77C72.2255 33.77 67.8166 36.5524 67.8166 37.652C67.8166 38.7522 70.1833 38.3318 71.6423 37.4907C73.1007 36.6493 75.6943 35.7758 76.2456 38.1695C76.796 40.5639 75.0134 41.1138 72.8418 40.6935C70.6704 40.2727 68.4004 38.461 67.5901 38.7845C66.7794 39.1081 69.965 45.3197 76.3468 45.0936C82.7289 44.8672 79.5528 37.8787 79.5528 37.7818C79.5528 37.6844 77.7371 34.4171 77.7371 34.4171L76.2456 33.2198Z" fill="#D19989"/>
<path d="M66.5421 36.9171L67.7211 36.3075L68.016 36.1551L68.0899 36.1173L68.1064 36.1084L68.1312 36.0967L68.178 36.0738C68.2101 36.0611 68.2419 36.0456 68.2741 36.0322L68.373 35.9979C68.6396 35.9097 68.9269 35.8973 69.2008 35.9484C69.4741 35.9973 69.7302 36.1233 69.945 36.2964C70.161 36.4691 70.323 36.7022 70.4302 36.9537C70.5329 37.2074 70.5705 37.4868 70.538 37.7579C70.5231 37.8932 70.489 38.0256 70.4416 38.1532C70.4178 38.2161 70.3894 38.278 70.357 38.3377C70.3411 38.3679 70.3249 38.3974 70.3064 38.4266L70.2791 38.4685L70.2565 38.5031C70.1327 38.6889 69.9981 38.8826 69.8562 39.0617C69.7134 39.2427 69.5623 39.4157 69.4035 39.5821C69.0863 39.9161 68.7367 40.2171 68.3641 40.4841C67.9903 40.7499 67.5926 40.9798 67.1755 41.1706C67.0702 41.2173 66.9655 41.2605 66.8599 41.3059L66.5395 41.4259L66.2131 41.5307L66.0486 41.5748L65.9656 41.5974L65.9226 41.6085L65.9022 41.6136L65.8933 41.6164L65.8873 41.618L65.8844 41.6186C65.8599 41.525 65.9382 41.8298 65.8262 41.4084C65.718 40.9861 65.7979 41.291 65.7747 41.1957H65.7772L65.782 41.1951L65.7912 41.1916L65.8103 41.1859L65.8491 41.1738L65.9258 41.1513L66.0795 41.1049L66.3823 40.9969L66.6798 40.875L66.9706 40.7401C67.3533 40.5508 67.7176 40.3238 68.0577 40.0679C68.3953 39.8091 68.7102 39.5195 68.9934 39.2042C69.1337 39.0455 69.2689 38.8816 69.3946 38.7102C69.5225 38.5387 69.6338 38.3666 69.7509 38.1799L69.7722 38.1447L69.7881 38.1174C69.7996 38.0986 69.8098 38.0799 69.819 38.0602C69.8378 38.0224 69.8546 37.9831 69.8686 37.9437C69.896 37.8621 69.9129 37.7783 69.9211 37.6941C69.9342 37.5258 69.9059 37.3537 69.8371 37.201C69.7659 37.0495 69.665 36.9102 69.5308 36.8111C69.3987 36.7139 69.2435 36.6406 69.079 36.6184C68.9161 36.5933 68.7491 36.606 68.5964 36.6634L68.5391 36.685C68.52 36.693 68.5025 36.7035 68.484 36.712L68.457 36.7257L68.443 36.732L68.4245 36.7422L68.3523 36.7828L68.0625 36.9435L66.9032 37.5884C66.7189 37.6916 66.4864 37.6262 66.3833 37.4417C66.2796 37.2578 66.3451 37.0254 66.5303 36.9222C66.5338 36.9213 66.5386 36.9184 66.5421 36.9171Z" fill="#698EE9"/>
<path d="M62.1448 35.6295H60.8276H55.5518L55.9529 39.54C56.0423 40.2687 56.3242 40.96 56.7677 41.5448C57.5539 42.5834 58.7832 43.1934 60.0867 43.1934H60.8276H62.1448H62.8864C64.1911 43.1934 65.4201 42.5834 66.2072 41.5448C66.6507 40.96 66.9307 40.2687 67.0195 39.54L67.4229 35.6295H62.1448Z" fill="#698EE9"/>
<path d="M65.019 32.4902H65.2023C65.2023 31.8812 64.9092 31.5767 64.627 31.2824C64.3553 31.0004 64.1011 30.7356 64.1011 30.2C64.1011 29.6634 64.3553 29.3979 64.627 29.1169C64.9092 28.822 65.2023 28.5171 65.2023 27.9075C65.2023 27.2982 64.9092 26.9931 64.627 26.6987C64.3553 26.418 64.1011 26.1529 64.1011 25.6179H63.9169C63.9169 26.2266 64.209 26.5308 64.4941 26.8267C64.7639 27.1064 65.019 27.3715 65.019 27.9075C65.019 28.4432 64.7639 28.7092 64.4941 28.9899C64.209 29.2849 63.9169 29.5891 63.9169 30.2C63.9169 30.8096 64.209 31.1138 64.4941 31.4091C64.7639 31.6898 65.019 31.9546 65.019 32.4902Z" fill="#698EE9"/>
<path d="M61.8351 32.4902H62.0193C62.0193 31.5364 61.733 31.0522 61.4565 30.5858C61.1787 30.1178 60.9172 29.6774 60.9172 28.7724C60.9172 27.8672 61.1787 27.4268 61.4565 26.9597C61.733 26.4917 62.0193 26.0088 62.0193 25.054C62.0193 24.0996 61.733 23.615 61.4565 23.1473C61.1787 22.6806 60.9172 22.2389 60.9172 21.3349H60.7336C60.7336 22.2897 61.0203 22.7727 61.2984 23.2407C61.5752 23.7071 61.8351 24.1488 61.8351 25.054C61.8351 25.9577 61.5752 26.399 61.2984 26.8658C61.0203 27.3344 60.7336 27.8177 60.7336 28.7724C60.7336 29.7266 61.0203 30.2098 61.2984 30.6785C61.5752 31.1452 61.8351 31.5869 61.8351 32.4902Z" fill="#698EE9"/>
<path d="M58.7739 32.4902H58.9584C58.9584 31.8812 58.665 31.5767 58.3813 31.2824C58.1115 31.0004 57.8553 30.7356 57.8553 30.2C57.8553 29.6634 58.1115 29.3979 58.3813 29.1169C58.665 28.822 58.9584 28.5171 58.9584 27.9075C58.9584 27.2982 58.665 26.9931 58.3813 26.6987C58.1115 26.418 57.8553 26.1529 57.8553 25.6179H57.6727C57.6727 26.2266 57.9651 26.5308 58.2492 26.8267C58.519 27.1064 58.7739 27.3715 58.7739 27.9075C58.7739 28.4432 58.519 28.7092 58.2492 28.9899C57.9651 29.2849 57.6727 29.5891 57.6727 30.2C57.6727 30.8096 57.9651 31.1138 58.2492 31.4091C58.519 31.6898 58.7739 31.9546 58.7739 32.4902Z" fill="#698EE9"/>
<path d="M67.5901 38.7849C68.4004 38.461 70.6704 40.2731 72.8418 40.6935C74.1929 40.9554 75.3895 40.8373 75.9692 40.1353C76.8294 41.4155 77.6614 42.7125 78.3992 44.0705C78.4889 44.2334 78.5926 44.3823 78.7049 44.5243C78.1224 44.8469 77.3595 45.0574 76.3468 45.0936C69.965 45.32 66.7794 39.1084 67.5901 38.7849Z" fill="#D19989"/>
<path d="M71.8369 103.286C71.8369 103.286 119.945 99.8022 130.188 109.12C140.431 118.438 138.486 134.468 122.278 148.65C111.553 158.034 78.8394 177.061 78.8394 177.061L64.3811 158.555C64.3811 158.555 66.0014 153.314 71.7074 151.696C77.4125 150.078 77.8019 146.132 78.5791 143.672C79.3573 141.214 79.0981 141.343 83.5719 139.531C88.0454 137.719 92.5192 130.666 92.5192 130.666C92.5192 130.666 62.6306 116.755 62.6306 116.238C62.6306 115.72 71.8369 103.286 71.8369 103.286Z" fill="#051B28"/>
<path d="M51.3499 43.2418L46.5076 42.93L34.695 41.9914C34.695 41.9914 31.4442 47.4774 31.3468 47.6505C31.2488 47.8235 29.088 53.8623 29.088 53.8623C29.088 53.8623 39.1895 64.1289 39.9311 63.6977C40.6727 63.2656 53.8976 62.5763 54.3303 60.7645C54.7633 58.9528 55.4969 56.0189 54.979 53.6033C54.4598 51.1879 53.121 47.9953 53.121 47.9953L51.3499 43.2418Z" fill="#D19989"/>
<path d="M21.2188 103.34H68.639C68.639 103.34 123.954 101.182 132.123 124.346C140.292 147.511 113.331 194.014 113.331 194.014L85.193 184.049C85.193 184.049 83.9274 178.096 88.5647 172.143C91.4885 168.387 91.9883 167.955 90.9512 163.295C89.9131 158.637 88.3045 157.649 92.7134 149.755C97.1223 141.861 97.9002 133.191 97.9002 133.191L51.8681 135.132C51.8681 135.132 30.9907 138.367 24.637 129.049C18.2832 119.732 21.2188 103.34 21.2188 103.34Z" fill="#0A2533"/>
<path d="M51.1506 43.25C51.1506 43.25 53.2291 56.0614 45.7087 57.4204C38.1873 58.779 33.3988 50.5963 34.695 41.9907C34.695 41.9907 25.7391 40.9851 19.1909 48.4912C12.6427 55.9966 8.81763 65.7241 8.81763 65.7241L27.36 70.8145C27.36 70.8145 23.5989 88.5871 21.2188 103.34L70.2807 103.301L65.2886 71.7207L69.3727 75.6671L80.7192 63.5027C80.7192 63.5027 73.9687 42.1498 51.1506 43.25Z" fill="#F2F0EF"/>
<path d="M27.3599 70.8143L26.1707 76.5896L66.3263 86.9904C66.3263 86.9904 69.3729 85.1787 72.3883 86.117C75.4028 87.0552 81.8536 90.6787 81.789 91.3906C81.7241 92.1021 78.1907 91.9081 78.1907 91.9081L17.6347 91.9323C17.6347 91.9323 6.67765 93.5903 5.83487 84.9844C4.99177 76.3787 10.8276 66.2198 10.8276 66.2198L27.3599 70.8143Z" fill="#D19989"/>
<path d="M69.3728 75.6677C69.3728 75.6677 79.9411 87.056 87.9158 87.3793C95.8909 87.7031 99.0663 73.6623 91.1139 55.1997C83.1608 36.7361 76.4402 27.6564 73.4254 26.6213C70.4103 25.5856 75.1113 32.5741 75.662 34.8063C76.2133 37.0387 75.9642 40.1012 75.5748 41.115C75.186 42.1291 73.6739 44.8033 77.24 46.2267L78.6151 65.7587L69.3728 75.6677Z" fill="#D19989"/>
<path d="M90.3533 188.129L81.4973 198.175L105.616 220.947C107.114 219.484 107.409 217.153 106.824 215.15C106.24 213.146 104.981 211.419 103.801 209.701C102.62 207.978 101.472 206.148 101.159 204.082C100.819 201.847 103.938 195.28 105.481 193.621" fill="black"/>
<path d="M100.359 208.34C101.871 209.767 103.706 210.63 105.672 210.812L105.728 210.212C103.372 209.992 101.208 208.717 99.6284 206.615C98.2368 204.763 97.8665 202.13 98.6071 199.379C99.3688 196.577 101.366 193.86 104.713 191.073L104.327 190.607C100.877 193.477 98.8171 196.294 98.0249 199.223C97.2318 202.151 97.6387 204.977 99.1435 206.979C99.5186 207.474 99.9243 207.931 100.359 208.34Z" fill="white"/>
<path d="M80.4055 194.356L109.295 221.633L109.713 221.194L80.8223 193.918L80.4055 194.356Z" fill="white"/>
<path d="M106.705 203.85C106.908 203.736 107.363 203.431 107.221 203.034C107.143 202.818 106.918 202.673 106.74 202.632C106.52 202.576 106.292 202.615 106.039 202.669C104.974 202.896 103.936 203.227 102.949 203.657C102.878 203.689 102.777 203.727 102.656 203.773C102.301 203.91 101.222 204.321 101.129 204.646C101.127 204.66 101.117 204.686 101.166 204.744C101.53 205.208 103.045 204.958 103.615 204.863C103.693 204.851 103.766 204.837 103.824 204.829C104.86 204.673 105.829 204.345 106.705 203.85ZM100.687 205.117C100.493 204.867 100.503 204.635 100.545 204.483C100.706 203.914 101.568 203.541 102.44 203.207C102.55 203.168 102.643 203.13 102.705 203.103C103.728 202.657 104.809 202.312 105.914 202.08C106.216 202.016 106.539 201.959 106.884 202.045C107.301 202.144 107.66 202.455 107.791 202.83C107.996 203.406 107.704 203.985 107.005 204.379C106.063 204.91 105.025 205.26 103.916 205.429C103.859 205.437 103.79 205.448 103.711 205.461C102.904 205.595 101.434 205.838 100.786 205.224C100.751 205.19 100.717 205.156 100.687 205.117" fill="black"/>
<path d="M105.364 205.529C104.533 205.189 103.674 204.947 102.806 204.804C102.743 204.795 102.656 204.773 102.55 204.75C102.258 204.685 101.373 204.491 101.177 204.663C101.17 204.671 101.155 204.685 101.159 204.751C101.205 205.271 102.347 205.8 102.774 205.998C102.839 206.029 102.89 206.054 102.936 206.073C103.711 206.45 104.517 206.661 105.33 206.702C105.549 206.715 105.922 206.683 105.992 206.351C106.033 206.15 105.945 205.935 105.844 205.82C105.831 205.803 105.816 205.79 105.799 205.774C105.683 205.665 105.53 205.596 105.364 205.529ZM100.555 204.804C100.53 204.496 100.661 204.313 100.774 204.211C101.172 203.863 101.932 203.996 102.68 204.159C102.774 204.18 102.85 204.198 102.905 204.206C103.817 204.358 104.722 204.614 105.591 204.967C105.835 205.068 106.091 205.184 106.3 205.423C106.548 205.707 106.66 206.12 106.584 206.475C106.471 207.024 105.981 207.343 105.3 207.308C104.404 207.261 103.521 207.029 102.669 206.618C102.629 206.598 102.577 206.576 102.52 206.546C102.102 206.355 101.458 206.056 101.023 205.644C100.767 205.403 100.582 205.122 100.555 204.804Z" fill="black"/>
<path d="M115.23 194.595L83.9115 181.04L80.8105 189.03L112.029 200.676L115.23 194.595Z" fill="#0B1C30"/>
<path d="M111.914 193.471L112.142 192.947L85.1721 181.276L84.9446 181.799L111.914 193.471Z" fill="white"/>
<path d="M66.072 163.296L53.2149 167.089L61.4696 199.186C63.5201 198.744 65.0132 196.928 65.5862 194.921C66.1614 192.915 66.0188 190.784 65.9355 188.703C65.8575 186.616 65.8626 184.457 66.7006 182.541C67.6064 180.47 73.7518 176.571 75.9426 175.988" fill="black"/>
<path d="M63.7518 185.719C64.2692 187.731 65.3626 189.436 66.9289 190.637L67.2964 190.158C65.4202 188.721 64.2692 186.489 64.0547 183.87C63.8654 181.565 64.9576 179.138 67.0536 177.205C69.1928 175.238 72.3346 174 76.6554 173.421L76.5774 172.822C72.1243 173.417 68.8779 174.706 66.6435 176.762C64.4095 178.819 63.245 181.427 63.4506 183.921C63.5037 184.54 63.6023 185.143 63.7518 185.719Z" fill="white"/>
<path d="M54.3303 163.275L64.2184 201.721L64.8064 201.571L54.9167 163.127L54.3303 163.275Z" fill="white"/>
<path d="M71.5187 185.294C71.7513 185.304 72.301 185.288 72.3914 184.876C72.4413 184.652 72.3268 184.411 72.1999 184.28C72.0411 184.115 71.8286 184.029 71.5868 183.94C70.5646 183.565 69.5074 183.294 68.4428 183.132C68.3665 183.122 68.2609 183.099 68.133 183.075C67.7604 183.001 66.6265 182.776 66.3758 183.001C66.3669 183.013 66.345 183.029 66.3545 183.103C66.415 183.69 67.8291 184.284 68.363 184.508C68.4368 184.539 68.5042 184.565 68.5574 184.59C69.5182 185.009 70.513 185.245 71.5187 185.294ZM65.7503 183.165C65.7182 182.85 65.8518 182.658 65.9683 182.553C66.4067 182.157 67.3366 182.299 68.2526 182.481C68.3674 182.505 68.4651 182.524 68.5332 182.533C69.6362 182.701 70.7357 182.983 71.7952 183.374C72.085 183.48 72.3882 183.604 72.6341 183.858C72.9338 184.165 73.0716 184.62 72.9828 185.007C72.8492 185.604 72.2921 185.938 71.4914 185.899C70.4103 185.848 69.3438 185.593 68.3159 185.147C68.2637 185.122 68.1985 185.096 68.1247 185.065C67.3716 184.748 65.9979 184.173 65.7771 183.307C65.7647 183.261 65.7554 183.213 65.7503 183.165" fill="black"/>
<path d="M69.4884 186.001C68.965 185.271 68.3681 184.61 67.7102 184.026C67.6615 183.986 67.5992 183.921 67.5219 183.845C67.3109 183.635 66.6641 183.001 66.4058 183.041C66.3956 183.045 66.3759 183.048 66.3441 183.107C66.1051 183.571 66.7885 184.626 67.045 185.022C67.0831 185.082 67.114 185.13 67.1423 185.171C67.5966 185.902 68.1664 186.509 68.832 186.976C69.0099 187.103 69.3439 187.274 69.5797 187.031C69.7225 186.883 69.7623 186.654 69.7391 186.503C69.7356 186.482 69.7308 186.462 69.7241 186.44C69.685 186.286 69.593 186.146 69.4884 186.001ZM65.8054 182.83C65.9483 182.557 66.1564 182.471 66.3068 182.445C66.8286 182.361 67.4013 182.878 67.9469 183.414C68.016 183.481 68.07 183.537 68.1133 183.574C68.8043 184.187 69.4317 184.885 69.9793 185.646C70.1326 185.863 70.2872 186.095 70.3362 186.408C70.3944 186.781 70.2697 187.19 70.0155 187.45C69.6271 187.855 69.0407 187.863 68.4843 187.473C67.7503 186.956 67.1258 186.291 66.6266 185.491C66.6027 185.452 66.5709 185.406 66.5378 185.35C66.2862 184.965 65.9018 184.37 65.7514 183.789C65.6639 183.45 65.6585 183.114 65.8054 182.83Z" fill="black"/>
<path d="M83.674 181.993L64.4046 153.87L57.5148 158.983L77.7189 185.438L83.674 181.993Z" fill="#0B1C30"/>
<path d="M81.4674 179.277L81.9399 178.955L65.3461 154.739L64.8727 155.062L81.4674 179.277Z" fill="white"/>
<path d="M39.1572 200.82H54.9473V194.704H39.1572V200.82Z" fill="#FFCA64"/>
<path d="M48.899 200.82H49.7313C50.6164 198.785 51.4096 196.601 52.4451 194.704H51.5782C50.6066 196.647 49.8335 198.809 48.899 200.82Z" fill="#E8AD4F"/>
<path d="M45.7958 198.629C45.5477 199.266 45.2626 200.023 45.031 200.82H45.8696C46.2053 199.621 46.6526 198.48 47.2017 197.431C47.6669 196.542 48.3064 195.653 48.8717 194.704H47.9424C47.1944 195.977 46.3672 197.171 45.7958 198.629Z" fill="#E8AD4F"/>
<path d="M39.1573 199.028V200.182C39.5034 199.861 39.8782 199.597 40.2743 199.4C41.5348 198.774 43.0129 198.853 43.9181 197.326C44.3718 196.561 44.5343 195.635 44.6781 194.703H43.9696C43.7612 195.847 43.4638 196.893 42.6461 197.467C41.8072 198.056 40.7907 198.072 39.9129 198.538C39.6514 198.677 39.3981 198.84 39.1573 199.028Z" fill="#E8AD4F"/>
<path d="M39.1572 183.693H54.9473V177.577H39.1572V183.693Z" fill="#FFCA64"/>
<path d="M48.899 183.693H49.7313C50.6164 181.657 51.4096 179.474 52.4451 177.577H51.5782C50.6066 179.52 49.8335 181.68 48.899 183.693Z" fill="#E8AD4F"/>
<path d="M45.7958 181.504C45.5477 182.139 45.2626 182.895 45.031 183.693H45.8696C46.2053 182.493 46.6526 181.352 47.2017 180.304C47.6669 179.414 48.3064 178.525 48.8717 177.577H47.9424C47.1944 178.848 46.3672 180.044 45.7958 181.504Z" fill="#E8AD4F"/>
<path d="M39.1573 181.902V183.055C39.5034 182.735 39.8782 182.472 40.2743 182.273C41.5348 181.647 43.0129 181.727 43.9181 180.199C44.3718 179.435 44.5343 178.509 44.6781 177.578H43.9696C43.7612 178.72 43.4638 179.768 42.6461 180.342C41.8072 180.931 40.7907 180.946 39.9129 181.412C39.6514 181.55 39.3981 181.713 39.1573 181.902Z" fill="#E8AD4F"/>
<path d="M54.5338 224.555H60.1434V138.062H54.5338V224.555Z" fill="#FFCA64"/>
<path d="M35.6251 224.555H41.2341V138.062H35.6251V224.555Z" fill="#FFCA64"/>
<path d="M35.6252 215.829V217.391C36.272 216.26 36.9739 215.182 37.7295 214.171C38.8141 212.718 40.011 211.511 41.2342 210.322V209.097C40.7691 209.52 40.3014 209.939 39.8611 210.388C38.2885 211.984 36.8708 213.81 35.6252 215.829Z" fill="#E8AD4F"/>
<path d="M39.1964 143.357C39.7302 144.908 40.461 146.278 41.2341 147.609V145.913C41.1768 145.814 41.1205 145.712 41.0664 145.611C39.8307 143.308 39.1448 140.672 39.1909 138.061H38.4213C38.3615 139.849 38.6097 141.657 39.1964 143.357Z" fill="#E8AD4F"/>
<path d="M35.6252 182.979V184.072C37.4937 182.761 39.4793 181.731 41.2342 180.157V178.845C40.2989 179.805 39.2343 180.618 38.0858 181.367C37.2694 181.902 36.4368 182.422 35.6252 182.979Z" fill="#E8AD4F"/>
<path d="M37.3369 198.835C36.748 199.362 36.1801 199.926 35.6252 200.518V201.947C36.2431 201.21 36.8584 200.465 37.5329 199.849C38.4771 198.987 39.9028 197.597 41.2342 197.205V196.263C39.8904 196.618 38.4727 197.814 37.3369 198.835Z" fill="#E8AD4F"/>
<path d="M37.321 224.555H38.3601C39.3426 223.037 40.2907 221.472 41.2343 219.908V218.308C39.9496 220.407 38.6598 222.517 37.321 224.555Z" fill="#E8AD4F"/>
<path d="M37.0429 206.179C36.5778 206.698 36.1079 207.214 35.6252 207.728V208.947C36.0436 208.522 36.4572 208.086 36.8651 207.641C36.6681 208.649 36.1368 209.555 35.6252 210.394V212C36.615 210.412 37.8326 208.627 37.6729 206.53C37.6417 206.091 37.3013 205.894 37.0429 206.179Z" fill="#E8AD4F"/>
<path d="M39.1911 155.567C40.6355 159.091 41.6195 163.313 40.2302 167.14C39.1055 170.233 37.4397 173.079 35.6252 175.548V176.941C37.4024 174.624 38.9652 171.992 40.2435 169.143C40.6877 168.152 41.0115 167.17 41.2342 166.202V159.319C40.3281 155.027 37.9538 150.939 35.6252 146.967V148.681C36.9198 150.877 38.1857 153.103 39.1911 155.567Z" fill="#E8AD4F"/>
<path d="M26.3434 139.029H68.8705V134.468H26.3434V139.029Z" fill="black"/>
<path d="M60.1434 161.453C58.1902 164.661 57.6596 169.203 57.888 173.27C58.0887 176.876 58.8895 180.229 60.1434 183.227V181.103C58.3379 175.776 57.756 168.818 59.9423 163.571C60.0062 163.42 60.0737 163.271 60.1434 163.126V161.453Z" fill="#E8AD4F"/>
<path d="M54.5338 149.109V151.111C55.5478 148.378 57.2333 145.997 58.8953 143.954C59.293 143.465 59.7149 142.974 60.1434 142.475V141.307C58.8969 142.783 57.5906 144.162 56.5741 145.604C55.8134 146.685 55.1157 147.859 54.5338 149.109Z" fill="#E8AD4F"/>
<path d="M60.1433 150.194C58.201 151.906 56.33 153.779 54.5337 155.74V157.018C56.301 155.07 58.132 153.237 60.0307 151.534C60.0689 151.501 60.1061 151.469 60.1433 151.434V150.194Z" fill="#E8AD4F"/>
<path d="M55.5476 196.846C55.2154 196.375 54.8734 195.913 54.5336 195.449V196.875C56.3948 199.476 58.2916 202.482 57.697 206.191C56.6506 205.889 55.5966 205.659 54.5336 205.505V206.493C55.6532 206.657 56.7661 206.918 57.8688 207.25C58.0657 207.309 58.2674 207.172 58.3241 206.905C59.1411 203.056 57.4479 199.55 55.5476 196.846Z" fill="#E8AD4F"/>
<path d="M57.3788 214.494C56.4164 214.443 55.4323 214.161 54.5339 213.651V214.745C55.1966 215.079 55.8924 215.294 56.5913 215.403C57.7561 215.584 58.9956 215.324 60.1432 215.617V214.671C59.2657 214.488 58.3428 214.546 57.3788 214.494Z" fill="#E8AD4F"/>
<path d="M54.5338 167.239C56.1284 171.025 56.2222 175.675 56.0377 180.005C55.9222 182.713 55.6117 185.493 55.8118 188.201C55.9763 190.446 56.7071 192.32 57.6647 194.141C58.4105 195.561 59.2641 197.013 60.1434 198.502V196.918C59.6777 196.118 59.224 195.332 58.7957 194.557C57.3787 191.988 56.4812 189.651 56.5003 186.383C56.5168 183.391 56.8207 180.416 56.849 177.426C56.8923 173.205 56.3931 168.854 54.5338 165.425V167.239Z" fill="#E8AD4F"/>
<path d="M51.9069 13.4505C51.9069 13.4505 54.2972 17.9144 53.8769 22.4644C53.455 27.0151 49.1838 13.4581 49.1838 13.4581L51.9069 13.4505Z" fill="#001A2D"/>
<path d="M34.505 43.9375L35.4683 31.79C35.4683 31.79 30.4765 34.2733 29.5008 30.0627C28.6322 26.3126 32.736 25.4765 34.964 27.0003C34.964 27.0003 29.6271 14.2044 40.9936 11.6348C52.3589 9.06573 54.5478 24.7767 55.0959 28.5777C56.0603 35.2687 51.6653 39.1202 48.2249 39.913L49.0361 43.9874C49.0361 43.9874 49.7876 47.5483 46.4203 48.1288C41.9309 48.9041 34.505 43.9375 34.505 43.9375Z" fill="#D19989"/>
<path d="M53.4873 24.7542C53.4873 24.7542 57.8727 20.9843 59.3161 25.3597C60.9047 30.1707 53.9292 29.6001 53.9292 29.6001L53.4873 24.7542Z" fill="#D19989"/>
<path d="M54.9224 28.7559C54.7404 28.7559 54.5919 28.6127 54.5868 28.431C54.5572 27.3817 54.4207 26.3297 54.1818 25.3051C54.1401 25.1254 54.2514 24.946 54.4315 24.9041C54.611 24.8679 54.791 24.9749 54.8337 25.1536C55.0818 26.2214 55.2247 27.3175 55.2571 28.412C55.2619 28.5965 55.1175 28.7495 54.9313 28.7552C54.9282 28.7559 54.925 28.7559 54.9224 28.7559Z" fill="#001A2D"/>
<path d="M54.9374 26.9336C54.791 26.9336 54.6574 26.8383 54.6157 26.692C54.5645 26.5142 54.6673 26.3294 54.8441 26.2779L56.4505 25.8179C56.6296 25.7693 56.8132 25.8693 56.8641 26.0465C56.9156 26.2236 56.8125 26.4091 56.6366 26.4608L55.0293 26.9203C54.9988 26.9288 54.9689 26.9336 54.9374 26.9336Z" fill="#001A2D"/>
<path d="M34.3605 30.1523C34.2062 30.1523 34.0681 30.0463 34.0334 29.8898C33.9106 29.3335 33.5085 28.8512 32.9838 28.6299C32.4586 28.4086 31.8312 28.4562 31.3444 28.7563C31.1872 28.854 30.9814 28.8048 30.8834 28.6489C30.7873 28.4924 30.8344 28.286 30.9922 28.1889C31.6591 27.7767 32.5222 27.7075 33.2434 28.0145C33.9663 28.3187 34.5192 28.9817 34.6875 29.7472C34.7267 29.9266 34.6121 30.1047 34.432 30.1447C34.4079 30.1504 34.3837 30.1523 34.3605 30.1523Z" fill="#001A2D"/>
<path d="M32.7479 29.959C32.6904 29.959 32.634 29.9447 32.5819 29.9145C32.4225 29.8231 32.3658 29.6189 32.4587 29.4579L33.0677 28.3965C33.159 28.2355 33.3648 28.1815 33.5242 28.272C33.6846 28.3641 33.7403 28.5683 33.648 28.7283L33.0394 29.7917C32.9764 29.899 32.8641 29.959 32.7479 29.959Z" fill="#001A2D"/>
<path d="M50.4745 16.7433C47.0532 18.4826 39.7574 16.4553 37.3305 16.9309C34.9037 17.4085 35.0125 21.7426 35.8113 24.7818C36.6096 27.8223 36.3471 29.3699 35.8377 28.4923C35.3297 27.616 32.8923 25.9789 31.3302 26.4602C31.3302 26.4602 27.4096 20.0839 28.3456 16.7757C29.2816 13.4675 32.4606 14.0981 32.4606 14.0981C31.9598 13.6123 32.3384 12.9445 32.5458 12.279C32.8923 11.1693 33.6654 10.199 34.6695 9.60999C35.672 9.02226 36.8991 8.82318 38.0378 9.06005C37.5468 7.8211 37.9821 5.93125 39.046 5.1254C40.108 4.31986 41.7108 4.31986 42.7747 5.12445C43.6499 3.18982 45.6247 1.79816 47.7439 1.62162C49.8634 1.44635 52.0418 2.49288 53.2243 4.25636C54.4066 6.02111 54.5472 8.42946 53.5752 10.318C55.0378 10.7549 56.1844 12.0977 56.3839 13.6069C56.5833 15.1163 55.8258 16.7099 54.5278 17.5101C53.2297 18.3109 51.7386 17.5968 50.4745 16.7433Z" fill="#001A2D"/>
<path d="M50.4745 16.7424C50.4745 16.7424 53.7324 20.4602 58.0373 19.3197C62.3425 18.1779 63.1048 11.0278 57.8072 8.97438C57.8072 8.97438 58.9682 6.00719 56.5194 3.57343C54.0722 1.13936 46.3023 -1.35124 42.7747 5.12355C42.7747 5.12355 41.7318 2.39418 37.9929 3.68742C34.2552 4.98066 33.57 9.089 35.3605 11.6367C35.3605 11.6367 30.9392 9.9247 30.5195 13.6527C30.1012 17.3793 31.8927 18.4008 32.0826 18.4227C32.2735 18.4449 37.1135 13.6527 37.1135 13.6527C37.1135 13.6527 50.7952 13.626 50.7189 13.4488C50.6422 13.272 50.4745 16.7424 50.4745 16.7424Z" fill="#001A2D"/>
<path d="M48.2258 39.9121C45.9869 40.5906 41.2615 39.0834 41.2615 39.0834C41.2615 39.0834 44.4331 41.9902 48.6384 41.9902L48.2258 39.9121Z" fill="#001A2D"/>
<path d="M41.558 27.9334C41.3922 28.9088 40.4658 29.5655 39.4884 29.4004C38.5111 29.2353 37.8531 28.3103 38.0186 27.3359C38.184 26.3592 39.1108 25.7032 40.0881 25.868C41.0645 26.0328 41.7234 26.958 41.558 27.9334Z" fill="#E87555"/>
<path d="M53.661 27.8338C53.4962 28.8085 52.5698 29.4661 51.593 29.3007C50.6157 29.1359 49.9577 28.2113 50.1232 27.2349C50.2883 26.2599 51.2154 25.6036 52.1918 25.769C53.1701 25.9338 53.8268 26.8581 53.661 27.8338Z" fill="#E87555"/>
<path d="M40.5259 21.4453C40.6028 21.4453 40.6818 21.4199 40.7467 21.3678C41.7017 20.6055 43.1076 20.395 44.2444 20.8468C44.4248 20.9195 44.6322 20.8296 44.7047 20.6483C44.776 20.4664 44.6873 20.2613 44.5062 20.1895C43.12 19.6405 41.4701 19.8863 40.3051 20.8163C40.152 20.9376 40.1253 21.1602 40.2494 21.3123C40.3184 21.3996 40.4212 21.4453 40.5259 21.4453Z" fill="#001A2D"/>
<path d="M47.8097 20.8926C47.9109 20.8926 48.013 20.85 48.0818 20.7653C48.8285 19.8686 50.3069 19.6863 51.2477 20.3769C51.4045 20.4922 51.6263 20.4579 51.7433 20.3014C51.8591 20.1445 51.8238 19.9229 51.667 19.8076C50.4195 18.8919 48.5288 19.1231 47.538 20.3141C47.4136 20.4649 47.434 20.6875 47.5845 20.8119C47.65 20.8662 47.7308 20.8926 47.8097 20.8926Z" fill="#001A2D"/>
<path d="M47.5248 29.3301C47.6079 29.3301 47.6903 29.3025 47.7568 29.2447L48.5788 28.5372C48.6899 28.4407 48.7312 28.2836 48.6775 28.1445L47.0365 23.8552C46.9668 23.6742 46.7609 23.5825 46.5786 23.6517C46.397 23.7209 46.3041 23.9257 46.3747 24.1067L47.9266 28.1645L47.2938 28.7103C47.1462 28.8373 47.1303 29.0608 47.2573 29.2082C47.3279 29.2891 47.4252 29.3301 47.5248 29.3301Z" fill="#001A2D"/>
<path d="M41.6934 24.9453C41.8181 24.9453 41.94 24.8793 42.0039 24.7608C42.2314 24.3427 42.6841 24.0486 43.1576 24.0112C43.6211 23.9693 44.126 24.1918 44.4155 24.5681C44.5361 24.7231 44.7569 24.7523 44.9137 24.6326C45.068 24.5138 45.0973 24.2915 44.9767 24.1372C44.5374 23.5679 43.8311 23.2479 43.1009 23.3079C42.3844 23.3644 41.7249 23.7921 41.3804 24.4239C41.2881 24.5948 41.352 24.8088 41.5232 24.9021C41.5763 24.9313 41.6336 24.9453 41.6934 24.9453Z" fill="#001A2D"/>
<path d="M49.0544 24.332C49.2024 24.332 49.3395 24.24 49.3891 24.0926C49.532 23.6789 49.8972 23.3411 50.3251 23.2341C50.7527 23.1248 51.2337 23.2493 51.5567 23.5462C51.6989 23.6789 51.9244 23.67 52.0571 23.5259C52.1888 23.3827 52.1812 23.1601 52.0367 23.0267C51.536 22.566 50.8151 22.3828 50.1524 22.5489C49.4903 22.7165 48.9408 23.2198 48.7188 23.865C48.6567 24.0491 48.7563 24.2501 48.9393 24.3133C48.98 24.3254 49.0172 24.332 49.0544 24.332Z" fill="#001A2D"/>
<path d="M45.153 33.6191C45.2892 33.6191 45.4196 33.5404 45.4778 33.4089C45.5567 33.2299 45.4743 33.0216 45.2949 32.9432C44.2447 32.4809 44.2024 31.1867 44.2991 30.3405C45.3853 31.5734 47.1376 32.1865 48.7615 31.8255C48.952 31.783 49.0717 31.594 49.0309 31.4029C48.988 31.2149 48.8012 31.0968 48.6065 31.1362C47.0206 31.4883 45.2195 30.6942 44.4114 29.2898C44.3408 29.1676 44.2024 29.1006 44.0608 29.1149C43.9208 29.1317 43.8053 29.2311 43.7646 29.3673C43.7248 29.5003 42.8388 32.6352 45.0121 33.5896C45.0582 33.6099 45.1059 33.6191 45.153 33.6191Z" fill="#001A2D"/>
<path d="M42.6093 21.6451C41.0024 21.6451 39.6964 22.9492 39.6964 24.5526C39.6964 26.1564 41.0024 27.4604 42.6093 27.4604C44.2163 27.4604 45.5233 26.1564 45.5233 24.5526C45.5233 22.9492 44.2163 21.6451 42.6093 21.6451ZM42.6093 28.5254C40.4147 28.5254 38.629 26.7425 38.629 24.5526C38.629 22.3618 40.4147 20.5805 42.6093 20.5805C44.8049 20.5805 46.5897 22.3618 46.5897 24.5526C46.5897 26.7425 44.8049 28.5254 42.6093 28.5254Z" fill="#FCF8F0"/>
<path d="M51.0599 21.2392C49.4539 21.2392 48.1469 22.5429 48.1469 24.147C48.1469 25.7492 49.4539 27.0539 51.0599 27.0539C52.6678 27.0539 53.9748 25.7492 53.9748 24.147C53.9748 22.5429 52.6678 21.2392 51.0599 21.2392ZM51.0599 28.1191C48.8659 28.1191 47.0795 26.3372 47.0795 24.147C47.0795 21.9565 48.8659 20.1736 51.0599 20.1736C53.2555 20.1736 55.0403 21.9565 55.0403 24.147C55.0403 26.3372 53.2555 28.1191 51.0599 28.1191Z" fill="#FCF8F0"/>
<path d="M46.0556 24.9961C45.9487 24.9961 45.8395 24.9637 45.7466 24.8964C45.5067 24.7252 45.4504 24.3928 45.6232 24.1531C45.6661 24.0928 46.0683 23.5571 46.7367 23.4939C47.0374 23.466 47.5025 23.5282 47.9899 23.9918C48.2024 24.1947 48.2098 24.5316 48.0074 24.7446C47.8028 24.9558 47.4659 24.965 47.2524 24.7621C47.0969 24.6125 46.9569 24.5395 46.8373 24.5547C46.6527 24.5719 46.4917 24.7713 46.4892 24.7732C46.3861 24.9186 46.2216 24.9961 46.0556 24.9961Z" fill="#FCF8F0"/>
<path d="M102.395 133.19L95.9573 142.143C95.9573 142.143 98.1163 134.139 98.1596 133.19H102.395Z" fill="black"/>
<path d="M97.9003 133.189H108.792" stroke="white" stroke-width="1.33333" stroke-miterlimit="10"/>
<path d="M44.9495 57.5251L45.3837 67.1055" stroke="#161616" stroke-width="1.33333" stroke-miterlimit="10"/>
<path d="M43.699 60.8574C44.2118 60.8574 44.2118 60.0636 43.699 60.0636C43.1861 60.0636 43.1861 60.8574 43.699 60.8574Z" fill="#383838"/>
<path d="M43.6116 65.043C44.1245 65.043 44.1245 64.2492 43.6116 64.2492C43.0988 64.2492 43.0988 65.043 43.6116 65.043Z" fill="#383838"/>
<path d="M65.2887 71.7188L63.4088 62.3127" stroke="#161616" stroke-width="1.33333" stroke-miterlimit="10"/>
<path d="M27.3599 70.8145L30.0829 62.8556" stroke="black" stroke-width="1.33333" stroke-miterlimit="10"/>
<path d="M26.1706 76.5889L20.2928 78.5781" stroke="black" stroke-width="1.33333" stroke-miterlimit="10"/>
<path d="M10.8274 66.2197L27.3598 70.8141L27.1364 71.5508L8.85107 70.2937C9.90638 67.8241 10.8274 66.2197 10.8274 66.2197Z" fill="black"/>
<path d="M78.757 65.9133L72.0841 78.332L69.3728 75.6655L78.5113 65.8689L78.757 65.9133Z" fill="black"/>
<path d="M78.615 65.757L82.547 70.1016" stroke="black" stroke-width="1.33333" stroke-miterlimit="10"/>
<path d="M70.2806 103.301C70.2806 103.301 62.3707 107.243 55.9521 105.496C49.5334 103.749 47.2589 109.007 39.8235 112.053C26.3431 117.575 19.1908 112.096 21.2187 103.339L63.4085 99.5431L70.2806 103.301Z" fill="#F2F0EF"/>
<path d="M46.3722 229.73H47.9286V93.9899H46.3722V229.73Z" fill="black"/>
<path d="M0 95.9199H94.3012V92.0608H0V95.9199Z" fill="#FFE2C3"/>
<path d="M2.33392 97.3438H91.5467V95.9203H2.33392V97.3438Z" fill="#B79C84"/>
</svg>
