<svg width="208" height="150" viewBox="0 0 208 150" fill="none" xmlns="http://www.w3.org/2000/svg">
<path d="M54.2769 23.6045C64.1411 23.6379 74.0048 23.6379 83.8683 23.5993C84.2376 23.598 84.2376 23.0147 83.8683 23.016C74.0048 23.0546 64.1411 23.0551 54.2769 23.0213C53.908 23.0203 53.908 23.603 54.2769 23.6045Z" fill="#465BB3"/>
<path d="M48.0034 23.5996C49.2494 23.5996 50.4952 23.5996 51.7413 23.5996C52.1098 23.5996 52.1098 23.0164 51.7413 23.0164C50.4952 23.0164 49.2494 23.0164 48.0034 23.0164C47.6348 23.0164 47.6348 23.5996 48.0034 23.5996Z" fill="#465BB3"/>
<path d="M55.6056 23.4149C55.5529 23.5433 55.6971 23.2412 55.7237 23.1933C55.8576 22.9561 56.0232 22.7437 56.2089 22.5474C56.8617 21.8578 57.7579 21.6969 58.6491 21.917C58.7775 21.9483 58.9018 21.8959 58.9724 21.7824C59.697 20.6119 60.8481 19.5954 62.0963 19.0601C63.0887 18.6336 64.3515 18.5022 65.3891 18.8284C65.6285 18.9034 65.8527 19.0333 66.0306 19.2133C66.0808 19.2642 66.193 19.4833 66.156 19.3803C66.2813 19.7303 66.8352 19.5794 66.7077 19.2248C66.1716 17.7222 63.6411 18.0055 62.5282 18.2958C60.8897 18.7241 59.3727 20.044 58.4788 21.488C58.5861 21.4434 58.6939 21.3995 58.8014 21.3543C57.2239 20.9644 55.6868 21.7237 55.0532 23.2595C54.911 23.6062 55.4644 23.7559 55.6056 23.4149Z" fill="#465BB3"/>
<path d="M65.7439 20.6352C67.2834 18.3535 69.7583 16.4133 72.4125 15.7832C73.9199 15.4254 75.2924 16.0021 75.985 17.4213C76.3623 18.1945 76.6679 19.5683 76.1241 20.3411C75.9228 20.6262 76.3418 20.8965 76.5731 20.6939C76.9695 20.3479 77.4486 20.0736 77.9333 19.8828C78.5305 19.6466 80.0206 19.4808 80.0627 20.459C80.0898 21.0978 79.5347 21.7753 79.1644 22.2367C78.9198 22.5406 78.6545 22.8324 78.3721 23.1005C78.1019 23.3577 78.5074 23.7692 78.7768 23.5127C79.5893 22.7414 80.963 21.3069 80.5696 20.0563C80.2672 19.098 78.9614 19.0215 78.171 19.1985C77.4454 19.3607 76.7301 19.791 76.1691 20.2822C76.3185 20.3998 76.4688 20.5176 76.6189 20.6352C77.2407 19.7511 76.9607 18.2956 76.5879 17.3759C75.9983 15.9226 74.725 15.0548 73.1775 15.0944C71.1062 15.1471 69.0871 16.4514 67.5632 17.7791C66.706 18.5258 65.8913 19.3906 65.2503 20.3411C65.0404 20.652 65.5369 20.9429 65.7439 20.6352Z" fill="#465BB3"/>
<path d="M134.022 41.1913C134.312 42.2253 133.686 43.314 132.624 43.6234L117.882 47.9176C116.821 48.2267 115.725 47.6395 115.435 46.6059L107.324 17.6946C107.034 16.66 107.66 15.5716 108.722 15.2624L123.463 10.9683C124.525 10.6583 125.62 11.2458 125.91 12.2796L134.022 41.1913Z" fill="#364D6E"/>
<path d="M119.693 15.4025L121.463 14.887L114.504 43.2891L113.74 40.5683L119.693 15.4025Z" fill="#35393D"/>
<path d="M122.589 14.5577L126.251 13.491L127.879 19.2966L122.254 42.6797L115.092 44.7656L122.589 14.5577Z" fill="#35393D"/>
<path d="M128.674 22.127L123.662 42.2695L127.605 41.1209L130.608 29.0213L128.674 22.127Z" fill="#35393D"/>
<path d="M127.547 43.3753C127.637 43.6963 127.455 44.0298 127.14 44.121L122.796 45.3867C122.481 45.4785 122.154 45.2927 122.064 44.9727C121.974 44.6518 122.156 44.3176 122.471 44.2261L126.815 42.9601C127.129 42.8691 127.457 43.0542 127.547 43.3753Z" fill="#35393D"/>
<path d="M117.837 14.163C117.858 14.2367 117.816 14.3137 117.744 14.3345L115.322 15.0393C115.25 15.0609 115.175 15.0183 115.154 14.944C115.135 14.8711 115.176 14.7946 115.247 14.7735L117.669 14.0677C117.741 14.0472 117.816 14.089 117.837 14.163Z" fill="#35393D"/>
<path d="M113.391 19.2376C113.505 19.2055 113.619 19.1716 113.731 19.1393C113.926 19.0819 114.042 18.8695 113.986 18.6727C113.931 18.4748 113.723 18.3565 113.528 18.4129C113.415 18.4465 113.301 18.4791 113.188 18.5124C112.994 18.5686 112.878 18.7807 112.934 18.9791C112.989 19.1769 113.198 19.2945 113.391 19.2376Z" fill="#35393D"/>
<path d="M111.073 19.9153C111.509 19.7877 111.943 19.6613 112.379 19.5342C112.838 19.4003 112.635 18.6752 112.175 18.8088C111.74 18.9365 111.305 19.0621 110.869 19.1889C110.41 19.3228 110.615 20.0489 111.073 19.9153Z" fill="#35393D"/>
<path d="M124.837 16.3762C124.95 16.3439 125.064 16.3108 125.177 16.2775C125.371 16.2213 125.486 16.0089 125.431 15.8108C125.375 15.6132 125.167 15.4949 124.973 15.5523C124.859 15.5849 124.747 15.6177 124.633 15.6513C124.44 15.7073 124.324 15.9201 124.379 16.1175C124.435 16.3158 124.643 16.4332 124.837 16.3762Z" fill="#3A3E42"/>
<path d="M122.518 17.0521C122.954 16.9252 123.389 16.7981 123.824 16.6714C124.283 16.5378 124.079 15.8124 123.62 15.946C123.185 16.0729 122.75 16.1995 122.315 16.3264C121.855 16.4593 122.059 17.1855 122.518 17.0521Z" fill="#3A3E42"/>
<path d="M129.011 30.6782C129.011 30.6782 119.836 21.9977 123.352 17.8124C123.352 17.8124 132.781 26.3956 134.434 27.4904C136.088 28.5846 142.996 32.6067 145.814 36.0628C148.633 39.5185 152.186 40.3464 154.258 40.2288C156.332 40.1122 178.348 42.1873 178.348 42.1873C178.348 42.1873 184.344 52.1762 170.521 58.5332C170.521 58.5332 149.622 52.6464 142.904 51.488C136.188 50.3291 125.085 48.8364 122.265 46.5429L132.329 43.4874C132.329 43.4874 127.336 41.5828 129.011 30.6782Z" fill="#F78D83"/>
<path d="M178.349 42.1875C178.349 42.1872 178.349 42.1872 178.348 42.1872C178.349 42.1872 178.349 42.1872 178.349 42.1875ZM178.347 42.187C178.166 42.1699 157.506 40.224 154.472 40.2242C157.508 40.2242 178.166 42.1699 178.347 42.187ZM153.877 40.2395C153.823 40.2395 153.768 40.2388 153.712 40.2375C153.768 40.2388 153.823 40.2395 153.877 40.2395ZM153.877 40.2395C154.001 40.2395 154.12 40.2363 154.235 40.23C154.12 40.2363 154.001 40.2395 153.877 40.2395ZM154.258 40.2287C154.263 40.2287 154.267 40.2285 154.272 40.2282C154.267 40.2285 154.263 40.2287 154.258 40.2287ZM154.272 40.2282C154.327 40.2255 154.393 40.2242 154.472 40.2242C154.394 40.2242 154.326 40.2255 154.272 40.2282ZM145.904 36.1721C145.896 36.1628 145.889 36.1533 145.881 36.1437C145.889 36.1533 145.896 36.1628 145.904 36.1721ZM145.873 36.1345C145.87 36.1304 145.866 36.1264 145.863 36.1224C145.866 36.1264 145.87 36.1304 145.873 36.1345ZM145.859 36.1174C145.855 36.1124 145.85 36.1071 145.846 36.1019C145.85 36.1071 145.855 36.1124 145.859 36.1174ZM134.434 27.4903C134.433 27.4896 134.432 27.4888 134.43 27.4878C134.432 27.4888 134.433 27.4896 134.434 27.4903Z" fill="#FBC7C3"/>
<path d="M139.721 48C137.857 48 136.511 46.2829 135.676 44.5784C134.636 42.4529 135.79 41.3344 136.779 41.3344C137.08 41.3344 137.366 41.4377 137.57 41.6475C137.854 41.9396 138.28 42.1194 138.724 42.1194C139.647 42.1192 140.647 41.3416 140.607 39.1785C140.55 35.9748 133.867 30.7828 129.226 27.1824C126.361 24.9601 125.192 22.1581 124.716 20.3383C124.838 20.1174 124.626 19.3316 124.781 19.1084C124.781 19.1084 132.768 26.3843 134.43 27.4881C134.432 27.4891 134.433 27.4898 134.434 27.4906C136.088 28.5848 142.996 32.6069 145.814 36.0631C145.825 36.0761 145.835 36.0892 145.846 36.1022C145.85 36.1075 145.855 36.1127 145.859 36.1177C145.86 36.1195 145.862 36.121 145.863 36.1228C145.866 36.1268 145.87 36.1308 145.873 36.1348C145.875 36.1378 145.878 36.1411 145.881 36.1441C145.889 36.1536 145.896 36.1631 145.904 36.1724C148.473 39.2542 151.625 40.1918 153.712 40.2379C153.768 40.2391 153.823 40.2399 153.877 40.2399C154.001 40.2399 154.12 40.2366 154.235 40.2304C154.243 40.2301 154.251 40.2296 154.258 40.2291C154.263 40.2291 154.267 40.2289 154.272 40.2286C154.272 40.2286 154.272 40.2286 154.272 40.2286C154.326 40.2259 154.394 40.2246 154.473 40.2246C157.506 40.2243 178.166 42.1703 178.347 42.1874C178.348 42.1874 178.348 42.1876 178.348 42.1876C178.349 42.1876 178.349 42.1876 178.349 42.1879C178.365 42.216 179.377 43.9205 179.598 46.3564C175.168 45.6553 162.305 43.7527 153.181 43.7527C148.634 43.7527 145.014 44.2256 143.832 45.5553C142.257 47.3268 140.887 48 139.721 48Z" fill="#F46963"/>
<path d="M150.289 39.7314C152.381 43.9769 149.657 49.0702 146.767 52.074C146.469 52.3834 146.882 52.9193 147.183 52.6063C150.272 49.3961 153.138 43.9987 150.903 39.4634C150.711 39.0727 150.095 39.3388 150.289 39.7314Z" fill="#1F2151"/>
<path d="M152.185 40.1896C154.278 44.436 151.553 49.5288 148.663 52.5331C148.365 52.8415 148.778 53.3784 149.079 53.0654C152.169 49.8552 155.034 44.4571 152.799 39.9223C152.606 39.5311 151.992 39.7984 152.185 40.1896Z" fill="#1F2151"/>
<path d="M131.178 25.3182C130.903 25.6379 130.646 25.9774 130.41 26.3292C130.231 26.5957 129.811 27.1594 129.956 27.5157C130.155 28.0064 131.137 27.5556 131.429 27.4493C131.932 27.267 132.537 26.9425 132.836 26.4673C132.859 26.4312 132.805 26.3906 132.782 26.4277C132.558 26.7825 132.149 27.0295 131.793 27.2156C131.491 27.3738 129.882 28.0771 130.019 27.2682C130.135 26.5757 130.79 25.8718 131.233 25.3583C131.261 25.3247 131.207 25.2854 131.178 25.3182Z" fill="#100F0D"/>
<path d="M131.808 25.9588C131.357 26.357 130.908 26.7546 130.457 27.153C130.425 27.1821 130.467 27.2355 130.499 27.2064C130.949 26.808 131.399 26.4106 131.849 26.0117C131.882 25.9834 131.84 25.9302 131.808 25.9588Z" fill="#100F0D"/>
<path d="M144.553 41.468C143.151 43.2613 142.052 45.7742 142.586 48.0853C142.596 48.1287 142.662 48.1186 142.652 48.0758C142.123 45.784 143.216 43.2881 144.607 41.5073C144.633 41.4732 144.58 41.4336 144.553 41.468Z" fill="#100F0D"/>
<path d="M132.856 40.8067C133.142 41.3576 134.295 42.4889 134.821 41.6675C134.844 41.6312 134.791 41.5911 134.767 41.6284C134.286 42.3791 133.184 41.2932 132.916 40.7799C132.897 40.741 132.835 40.7681 132.856 40.8067Z" fill="#100F0D"/>
<path d="M130.779 32.6896C131.133 34.8008 132.592 36.5921 134.818 35.7436C134.859 35.7291 134.832 35.6664 134.793 35.6814C132.591 36.5194 131.187 34.7186 130.845 32.6801C130.837 32.6367 130.772 32.6465 130.779 32.6896Z" fill="#100F0D"/>
<path d="M125.571 33.7054C126.114 35.6925 124.974 37.7518 123.024 38.3054C121.075 38.8588 119.054 37.6974 118.511 35.7106C117.968 33.724 119.108 31.6644 121.057 31.1111C123.007 30.5572 125.028 31.7191 125.571 33.7054Z" fill="#E9B641"/>
<path d="M123.753 33.4304L122.429 34.127L120.188 35.8651L122.871 38.3457C122.922 38.3334 122.973 38.3206 123.024 38.3058C124.639 37.8472 125.699 36.3566 125.706 34.7295L123.753 33.4304Z" fill="#BA8629"/>
<path d="M123.852 35.1438L120.711 36.0357C120.444 36.1117 120.168 35.9527 120.094 35.6804L119.881 34.9046C119.807 34.6326 119.963 34.3512 120.23 34.2755L123.371 33.3834C123.637 33.3082 123.914 33.4666 123.988 33.7384L124.2 34.5145C124.275 34.7865 124.119 35.0684 123.852 35.1438Z" fill="#2A954E"/>
<path d="M123.852 35.0861L120.682 35.9852C120.446 36.0524 120.2 35.9112 120.134 35.6698L119.921 34.8928C119.855 34.6513 119.994 34.4016 120.231 34.3339L123.4 33.4342C123.637 33.3673 123.882 33.5077 123.948 33.7494L124.161 34.5267C124.226 34.7681 124.088 35.0184 123.852 35.0861Z" fill="#34B55B"/>
<path d="M120.092 35.1328C120.064 35.0967 120.039 35.0576 120.018 35.0142C119.997 34.7813 120.094 34.5772 120.263 34.529L120.739 34.3939L120.81 34.6532L120.334 34.7883C120.2 34.8264 120.112 34.9626 120.092 35.1328ZM121.034 34.5895L121.022 34.5436L121.225 34.4859L121.257 34.5057L121.262 34.5248L121.034 34.5895ZM121.484 34.4616L121.443 34.3109L121.308 34.2327L121.557 34.1617L121.628 34.4207L121.484 34.4616ZM121.851 34.3575L121.78 34.0985L122.001 34.0358L122.071 34.2949L121.851 34.3575ZM122.294 34.2317L122.223 33.9727L122.322 33.9446L122.482 34.1783L122.294 34.2317ZM122.713 34.1128L122.564 33.8761L122.909 33.7781L122.901 34.0594L122.713 34.1128ZM123.925 34.0446C123.84 33.9338 123.728 33.8671 123.617 33.8671C123.592 33.8671 123.567 33.8706 123.542 33.8774L123.132 33.9937L123.151 33.7094L123.471 33.6184C123.496 33.6114 123.521 33.6081 123.546 33.6081C123.693 33.6081 123.841 33.7244 123.925 33.9045C123.931 33.9529 123.93 33.9997 123.925 34.0446Z" fill="#3EBA69"/>
<path d="M152.384 41.8859C152.384 42.4925 151.901 42.9844 151.306 42.9844C150.711 42.9844 150.228 42.4925 150.228 41.8859C150.228 41.2792 150.711 40.788 151.306 40.788C151.901 40.788 152.384 41.2792 152.384 41.8859Z" fill="#4050AB"/>
<path d="M150.228 41.8866C150.228 42.0042 150.251 42.1153 150.285 42.2219C150.469 42.3711 150.699 42.4648 150.953 42.4648C151.548 42.4648 152.031 41.9729 152.031 41.3661C152.031 41.2487 152.008 41.1377 151.975 41.0311C151.79 40.8814 151.56 40.7886 151.306 40.7886C150.711 40.7886 150.228 41.2798 150.228 41.8866Z" fill="#5063B8"/>
<path d="M151.13 39.1264C151.13 39.7329 150.647 40.2246 150.052 40.2246C149.457 40.2246 148.974 39.7329 148.974 39.1264C148.974 38.5198 149.457 38.0281 150.052 38.0281C150.647 38.0281 151.13 38.5198 151.13 39.1264Z" fill="#4050AB"/>
<path d="M148.974 39.1254C148.974 39.243 148.997 39.3539 149.03 39.4602C149.215 39.6101 149.445 39.7031 149.699 39.7031C150.294 39.7031 150.777 39.2117 150.777 38.6049C150.777 38.4873 150.754 38.3763 150.721 38.2697C150.536 38.1205 150.306 38.0272 150.052 38.0272C149.457 38.0272 148.974 38.5189 148.974 39.1254Z" fill="#5063B8"/>
<path d="M154.313 43.6847C154.313 44.2915 153.83 44.7832 153.235 44.7832C152.64 44.7832 152.157 44.2915 152.157 43.6847C152.157 43.0779 152.64 42.5859 153.235 42.5859C153.83 42.5859 154.313 43.0779 154.313 43.6847Z" fill="#4050AB"/>
<path d="M152.157 43.6857C152.157 43.8031 152.18 43.9144 152.213 44.0207C152.398 44.1704 152.628 44.2637 152.882 44.2637C153.477 44.2637 153.96 43.7722 153.96 43.165C153.96 43.0476 153.937 42.9366 153.904 42.8305C153.719 42.6803 153.489 42.587 153.235 42.587C152.64 42.587 152.157 43.079 152.157 43.6857Z" fill="#5063B8"/>
<path d="M153.855 39.7316C153.855 40.3381 153.372 40.8301 152.777 40.8301C152.182 40.8301 151.699 40.3381 151.699 39.7316C151.699 39.1248 152.182 38.6331 152.777 38.6331C153.372 38.6331 153.855 39.1248 153.855 39.7316Z" fill="#4050AB"/>
<path d="M151.699 39.7309C151.699 39.8482 151.722 39.9596 151.756 40.0659C151.94 40.2156 152.171 40.3086 152.424 40.3086C153.02 40.3086 153.503 39.8174 153.503 39.2106C153.503 39.0927 153.479 38.9819 153.446 38.8754C153.261 38.7257 153.031 38.6324 152.777 38.6324C152.182 38.6324 151.699 39.1241 151.699 39.7309Z" fill="#5063B8"/>
<path d="M153.462 47.2846C153.462 47.8911 152.979 48.3828 152.384 48.3828C151.789 48.3828 151.306 47.8911 151.306 47.2846C151.306 46.678 151.789 46.1863 152.384 46.1863C152.979 46.1863 153.462 46.678 153.462 47.2846Z" fill="#4050AB"/>
<path d="M151.306 47.2856C151.306 47.4029 151.329 47.5143 151.362 47.6206C151.547 47.7705 151.777 47.8633 152.031 47.8633C152.626 47.8633 153.109 47.3721 153.109 46.7653C153.109 46.6475 153.086 46.5367 153.052 46.4301C152.868 46.2807 152.638 46.1874 152.384 46.1874C151.789 46.1874 151.306 46.6791 151.306 47.2856Z" fill="#5063B8"/>
<path d="M151.678 50.7165C151.678 51.323 151.196 51.8145 150.6 51.8145C150.005 51.8145 149.523 51.323 149.523 50.7165C149.523 50.1092 150.005 49.6177 150.6 49.6177C151.196 49.6177 151.678 50.1092 151.678 50.7165Z" fill="#4050AB"/>
<path d="M149.523 50.7172C149.523 50.8345 149.545 50.9456 149.579 51.0519C149.763 51.2019 149.994 51.2949 150.248 51.2949C150.843 51.2949 151.325 50.8034 151.325 50.1966C151.325 50.0788 151.303 49.9677 151.269 49.8611C151.085 49.7117 150.854 49.6184 150.6 49.6184C150.005 49.6184 149.523 50.1099 149.523 50.7172Z" fill="#5063B8"/>
<path d="M149.77 53.1613C149.77 53.7678 149.287 54.2598 148.692 54.2598C148.097 54.2598 147.614 53.7678 147.614 53.1613C147.614 52.5544 148.097 52.0627 148.692 52.0627C149.287 52.0627 149.77 52.5544 149.77 53.1613Z" fill="#4050AB"/>
<path d="M147.614 53.1623C147.614 53.2799 147.637 53.3912 147.671 53.4973C147.855 53.647 148.085 53.7402 148.34 53.7402C148.934 53.7402 149.417 53.2488 149.417 52.642C149.417 52.5244 149.394 52.4131 149.361 52.307C149.177 52.1571 148.946 52.0638 148.692 52.0638C148.097 52.0638 147.614 52.5555 147.614 53.1623Z" fill="#5063B8"/>
<path d="M152.031 45.0363C152.031 45.6431 151.548 46.1348 150.953 46.1348C150.358 46.1348 149.875 45.6431 149.875 45.0363C149.875 44.4295 150.358 43.9375 150.953 43.9375C151.548 43.9375 152.031 44.4295 152.031 45.0363Z" fill="#4050AB"/>
<path d="M149.875 45.0375C149.875 45.1546 149.898 45.2662 149.932 45.3725C150.116 45.522 150.346 45.6152 150.6 45.6152C151.196 45.6152 151.678 45.1238 151.678 44.5168C151.678 44.3994 151.656 44.2881 151.622 44.1823C151.437 44.0321 151.207 43.9388 150.953 43.9388C150.358 43.9388 149.875 44.4308 149.875 45.0375Z" fill="#5063B8"/>
<path d="M150.953 47.9989C150.953 48.6057 150.47 49.0977 149.875 49.0977C149.28 49.0977 148.797 48.6057 148.797 47.9989C148.797 47.3921 149.28 46.9007 149.875 46.9007C150.47 46.9007 150.953 47.3921 150.953 47.9989Z" fill="#4050AB"/>
<path d="M148.797 47.9982C148.797 48.1158 148.82 48.2271 148.854 48.3335C149.038 48.4834 149.269 48.5762 149.523 48.5762C150.118 48.5762 150.6 48.085 150.6 47.4782C150.6 47.3603 150.577 47.2492 150.544 47.1429C150.36 46.9932 150.129 46.9 149.875 46.9C149.28 46.9 148.797 47.3914 148.797 47.9982Z" fill="#5063B8"/>
<path d="M149.182 50.5444C149.182 51.1511 148.699 51.6426 148.104 51.6426C147.509 51.6426 147.026 51.1511 147.026 50.5444C147.026 49.9376 147.509 49.4457 148.104 49.4457C148.699 49.4457 149.182 49.9376 149.182 50.5444Z" fill="#4050AB"/>
<path d="M147.026 50.5434C147.026 50.6605 147.049 50.7721 147.082 50.8784C147.266 51.0278 147.497 51.1211 147.751 51.1211C148.346 51.1211 148.829 50.6296 148.829 50.0228C148.829 49.9053 148.806 49.7937 148.772 49.6881C148.588 49.5379 148.357 49.4446 148.104 49.4446C147.509 49.4446 147.026 49.9366 147.026 50.5434Z" fill="#5063B8"/>
<path d="M147.261 52.4484C147.261 53.0552 146.778 53.5469 146.183 53.5469C145.588 53.5469 145.105 53.0552 145.105 52.4484C145.105 51.8416 145.588 51.3499 146.183 51.3499C146.778 51.3499 147.261 51.8416 147.261 52.4484Z" fill="#4050AB"/>
<path d="M145.105 52.4475C145.105 52.5648 145.128 52.6761 145.162 52.7824C145.345 52.9324 145.576 53.0254 145.83 53.0254C146.425 53.0254 146.908 52.534 146.908 51.9269C146.908 51.8093 146.885 51.6983 146.851 51.592C146.667 51.4423 146.437 51.349 146.183 51.349C145.588 51.349 145.105 51.8407 145.105 52.4475Z" fill="#5063B8"/>
<path d="M62.9066 43.3607L61.3035 27.0554L91.6144 22.9503C91.6144 22.9503 93.5292 23.1597 93.4015 25.9785C93.4015 25.9785 98.1253 25.8268 97.6996 30.2498C97.6996 30.2498 102.806 30.2067 103.019 33.6757L107.062 33.5889L119.304 39.7761C119.304 39.7761 117.637 42.2835 114.467 41.5897C111.296 40.8962 106.36 38.294 106.36 38.294L89.174 40.0655C89.174 40.0655 88.1533 40.7878 88.4085 42.0596C88.6639 43.3318 94.962 43.0136 97.0899 42.9851C99.2175 42.956 101.203 43.9677 101.516 46.4543C101.516 46.4543 85.7838 47.3793 85.1458 47.1624C84.5072 46.9457 77.4429 42.7393 73.5707 42.6092C69.698 42.4793 62.9066 43.3607 62.9066 43.3607Z" fill="#8E534F"/>
<path d="M85.6772 47.1934C82.7337 44.8577 79.6001 40.6789 77.3152 38.8212C75.0079 36.9439 66.8831 37.745 62.4147 38.3583L62.9066 43.3596C62.9066 43.3596 69.698 42.4782 73.5707 42.6081C77.4429 42.7382 84.5072 46.9446 85.1458 47.1613C85.2043 47.1811 85.3896 47.1914 85.6772 47.1934Z" fill="#794047"/>
<path d="M61.3035 27.0554L48.4625 28.9056V50.5879L63.7825 47.9862L61.3035 27.0554Z" fill="#1E2C3D"/>
<path d="M27.9509 31.9408L48.4625 28.9053C48.4625 28.9053 51.5555 33.2421 50.3638 38.822C49.1722 44.4009 48.8887 48.6219 51.0447 51.2235L25.9084 55.0977L27.9509 31.9408Z" fill="#465BB3"/>
<path d="M61.9106 45.5573C61.9106 46.3476 61.2814 46.9883 60.5058 46.9883C59.7302 46.9883 59.1016 46.3476 59.1016 45.5573C59.1016 44.7667 59.7302 44.1261 60.5058 44.1261C61.2814 44.1261 61.9106 44.7667 61.9106 45.5573Z" fill="#8E534F"/>
<path d="M93.4015 25.9785C93.4015 25.9785 93.1953 26.0161 92.8862 26.0735C92.5767 26.1282 92.1618 26.1891 91.7475 26.2493C91.3324 26.303 90.9168 26.3559 90.6043 26.3867C90.2908 26.415 90.0824 26.4336 90.0824 26.4336C90.0824 26.4336 90.2881 26.3955 90.5974 26.3386C90.9072 26.2842 91.3216 26.223 91.7364 26.1631C92.1515 26.1091 92.5669 26.0562 92.8796 26.0254C93.1928 25.9973 93.4015 25.9785 93.4015 25.9785Z" fill="#352018"/>
<path d="M97.6996 30.2488C97.6996 30.2488 97.1603 30.304 96.3517 30.387C95.5422 30.4622 94.463 30.5613 93.384 30.6606C92.3033 30.7456 91.2229 30.8309 90.4129 30.8943C89.6014 30.9492 89.0605 30.9863 89.0605 30.9863C89.0605 30.9863 89.6004 30.9309 90.4087 30.8474C91.2182 30.7732 92.2974 30.6739 93.3764 30.5746C94.4571 30.4893 95.5375 30.4046 96.3478 30.3411C97.1588 30.286 97.6996 30.2488 97.6996 30.2488Z" fill="#352018"/>
<path d="M103.019 33.6742C103.019 33.6742 102.328 33.7321 101.292 33.8196C100.255 33.8984 98.8721 34.0029 97.49 34.1078C96.1062 34.198 94.7226 34.2886 93.6852 34.3563C92.6469 34.4157 91.9545 34.4551 91.9545 34.4551C91.9545 34.4551 92.6456 34.3966 93.6818 34.3094C94.7187 34.2311 96.1015 34.1263 97.4839 34.0218C98.8679 33.931 100.251 33.8407 101.289 33.7727C102.327 33.7138 103.019 33.6742 103.019 33.6742Z" fill="#352018"/>
<path d="M66.0091 28.8951C66.0089 28.8966 65.0803 31.6214 65.08 33.9219C65.08 34.6631 65.1762 35.3606 65.4336 35.9107C65.6907 36.4609 66.1127 36.863 66.7551 37.002L66.7679 36.9408C66.1444 36.8049 65.7412 36.4207 65.4892 35.8839C65.2377 35.3471 65.1415 34.6575 65.1415 33.9219C65.1415 32.7798 65.3728 31.5273 65.6044 30.5612C65.7202 30.0783 65.8359 29.6666 65.9227 29.376C66.0096 29.0851 66.0672 28.9162 66.0672 28.9156L66.0091 28.8951Z" fill="#352018"/>
<path d="M86.1536 46.6369C86.1536 46.6367 86.1234 46.5419 86.0929 46.3847C86.0621 46.2275 86.0316 46.0091 86.0316 45.7656C86.0321 45.2215 86.1832 44.5573 86.8214 44.1534L86.7889 44.1002C86.1261 44.5195 85.9696 45.2115 85.9701 45.7656C85.9701 46.2633 86.0946 46.6545 86.0953 46.6562L86.1539 46.6369" fill="#352018"/>
<path d="M93.9049 45.1771C93.9047 45.1796 93.5319 46.1119 93.5304 46.5276C93.5306 46.5851 93.537 46.6339 93.5565 46.6726C93.5749 46.7117 93.6136 46.7393 93.6593 46.7383C93.7063 46.7378 93.7585 46.7157 93.8227 46.6726C94.4497 46.2488 94.9098 45.3958 95.0065 44.4766L94.9455 44.4698C94.851 45.3725 94.396 46.2109 93.7888 46.6202C93.7297 46.6605 93.6857 46.6758 93.6593 46.6756C93.6345 46.6746 93.6241 46.6673 93.6111 46.644C93.599 46.6204 93.5917 46.5798 93.5919 46.5276C93.5914 46.3353 93.6837 46.0003 93.7765 45.7175C93.8692 45.4341 93.9617 45.2012 93.962 45.2007L93.9049 45.1771Z" fill="#352018"/>
<path d="M94.2396 45.1465L93.8616 46.3064L93.9202 46.3262L94.2979 45.1663" fill="#352018"/>
<path d="M106.905 33.9095C106.905 33.91 106.757 34.3032 106.609 34.7575C106.461 35.2126 106.312 35.7246 106.312 35.9769C106.312 36.0233 106.316 36.0619 106.33 36.093C106.342 36.1241 106.373 36.1496 106.408 36.1484C106.437 36.1481 106.465 36.1361 106.497 36.1155C106.702 35.9784 106.893 35.6163 107.04 35.2119C107.186 34.8072 107.283 34.3616 107.284 34.0582C107.283 33.9073 107.262 33.7899 107.196 33.7247L107.154 33.7701C107.196 33.8085 107.223 33.9138 107.222 34.0582C107.222 34.3488 107.127 34.7916 106.983 35.1901C106.84 35.589 106.645 35.9453 106.464 36.0629C106.438 36.0802 106.418 36.086 106.408 36.0857L106.386 36.0672C106.378 36.0504 106.373 36.0185 106.373 35.9769C106.372 35.745 106.52 35.2289 106.667 34.7771C106.815 34.3245 106.962 33.9328 106.963 33.9321L106.905 33.9095Z" fill="#352018"/>
<path d="M106.975 34.0569L106.593 35.343L106.652 35.3613L107.035 34.075" fill="#352018"/>
<path d="M112.246 36.8084L111.778 38.1962L111.836 38.2168L112.304 36.8287" fill="#352018"/>
<path d="M97.6694 30.624L97.925 31.9902L97.9853 31.9784L97.7297 30.6122" fill="#352018"/>
<path d="M93.5444 26.3383L94.2892 27.8125L94.3439 27.7837L93.5991 26.3097" fill="#352018"/>
<path d="M91.5529 23.0697L89.1698 24.9562L89.2074 25.0059L91.5905 23.1193" fill="#352018"/>
<path d="M151.365 30.3418C152.158 30.3418 152.158 29.0881 151.365 29.0881C150.572 29.0881 150.572 30.3418 151.365 30.3418Z" fill="#F78D83"/>
<path d="M131.619 22.9059C146.766 22.9571 161.912 22.9571 177.058 22.8979C177.625 22.8957 177.625 22.0006 177.058 22.0026C161.912 22.0615 146.766 22.0622 131.619 22.0103C131.053 22.0086 131.053 22.9034 131.619 22.9059Z" fill="#465BB3"/>
<path d="M121.987 22.8984C123.9 22.8984 125.812 22.8984 127.726 22.8984C128.292 22.8984 128.292 22.0031 127.726 22.0031C125.812 22.0031 123.9 22.0031 121.987 22.0031C121.421 22.0031 121.421 22.8984 121.987 22.8984Z" fill="#465BB3"/>
<path d="M133.659 22.6149C133.579 22.8117 133.8 22.3481 133.841 22.2749C134.046 21.91 134.301 21.5843 134.586 21.2824C135.589 20.2238 136.964 19.9766 138.333 20.3148C138.53 20.3625 138.721 20.2825 138.829 20.108C139.942 18.3104 141.709 16.7498 143.626 15.9279C145.15 15.2732 147.089 15.0709 148.683 15.5716C149.05 15.6875 149.394 15.8868 149.667 16.1628C149.744 16.2416 149.916 16.5778 149.86 16.4196C150.053 16.9572 150.902 16.7253 150.708 16.1809C149.884 13.8731 145.999 14.3081 144.289 14.7544C141.774 15.4119 139.444 17.4386 138.071 19.6556C138.236 19.5872 138.401 19.5197 138.566 19.4505C136.144 18.852 133.784 20.018 132.811 22.3762C132.593 22.9085 133.443 23.1379 133.659 22.6149Z" fill="#465BB3"/>
<path d="M149.228 18.3477C151.591 14.8439 155.391 11.8648 159.467 10.8972C161.782 10.3476 163.889 11.2332 164.953 13.4126C165.532 14.5996 166.002 16.7094 165.167 17.8959C164.857 18.3339 165.501 18.7489 165.856 18.438C166.464 17.9066 167.2 17.4854 167.944 17.1918C168.862 16.8295 171.15 16.575 171.214 18.0767C171.255 19.0578 170.403 20.0981 169.835 20.8065C169.459 21.2731 169.052 21.7214 168.618 22.1331C168.204 22.5283 168.826 23.1599 169.24 22.7662C170.487 21.5815 172.596 19.379 171.992 17.4586C171.528 15.987 169.523 15.8694 168.309 16.1412C167.195 16.3904 166.097 17.0511 165.236 17.8053C165.465 17.9861 165.696 18.1669 165.926 18.3477C166.881 16.9897 166.451 14.7549 165.879 13.3427C164.973 11.1111 163.018 9.77842 160.642 9.8396C157.462 9.92009 154.361 11.9233 152.021 13.9615C150.705 15.1084 149.454 16.4366 148.469 17.8959C148.147 18.3733 148.91 18.8203 149.228 18.3477Z" fill="#465BB3"/>
<path d="M137.438 8.51367C137.339 8.51367 137.257 8.43143 137.257 8.32963V7.29679C137.257 7.19499 137.339 7.11249 137.438 7.11249C137.539 7.11249 137.619 7.19499 137.619 7.29679V8.32963C137.619 8.43143 137.539 8.51367 137.438 8.51367Z" fill="#F7C909"/>
<path d="M138.534 9.06836C138.479 9.06836 138.425 9.04304 138.389 8.9954C138.329 8.91441 138.344 8.79832 138.424 8.73689L139.231 8.11229C139.311 8.05061 139.424 8.0664 139.485 8.14739C139.545 8.22838 139.53 8.34447 139.45 8.40591L138.643 9.03075C138.61 9.05582 138.572 9.06836 138.534 9.06836Z" fill="#F7C909"/>
<path d="M139.74 10.5684L139.691 10.5616L138.715 10.2845C138.618 10.2569 138.562 10.1551 138.589 10.0573C138.616 9.95904 138.715 9.90188 138.812 9.92896L139.788 10.2065C139.884 10.2336 139.941 10.3349 139.914 10.4337C139.891 10.5149 139.819 10.5684 139.74 10.5684Z" fill="#F7C909"/>
<path d="M138.32 12.1797C138.248 12.1797 138.18 12.1356 138.151 12.0631L137.778 11.1033C137.741 11.0083 137.786 10.9012 137.879 10.8636C137.972 10.826 138.077 10.8726 138.114 10.9672L138.488 11.9267C138.525 12.0217 138.479 12.1285 138.386 12.1664L138.32 12.1797Z" fill="#F7C909"/>
<path d="M136.203 12C136.171 12 136.139 11.9912 136.109 11.9734C136.024 11.921 135.996 11.8077 136.048 11.7202L136.572 10.8358C136.624 10.7488 136.735 10.721 136.821 10.7734C136.906 10.8263 136.934 10.9394 136.882 11.0269L136.358 11.9107C136.324 11.9682 136.264 12 136.203 12Z" fill="#F7C909"/>
<path d="M135.062 10.1738C134.971 10.1738 134.893 10.1036 134.882 10.0089C134.872 9.90808 134.944 9.81708 135.043 9.80605L136.051 9.69699C136.151 9.68646 136.24 9.75943 136.25 9.86021C136.261 9.96149 136.189 10.0527 136.09 10.0635L135.082 10.1728L135.062 10.1738Z" fill="#F7C909"/>
<path d="M136.495 8.89648C136.446 8.89648 136.399 8.87718 136.363 8.83832L135.668 8.08657C135.599 8.0126 135.603 7.896 135.675 7.82604C135.748 7.75634 135.862 7.7596 135.931 7.83382L136.626 8.58556C136.695 8.65928 136.692 8.77613 136.619 8.84583C136.584 8.87993 136.539 8.89648 136.495 8.89648Z" fill="#F7C909"/>
<path d="M99.717 9.39453C99.6172 9.39453 99.5357 9.31204 99.5357 9.21049V8.1777C99.5357 8.0759 99.6172 7.99316 99.717 7.99316C99.8169 7.99316 99.8979 8.0759 99.8979 8.1777V9.21049C99.8979 9.31204 99.8169 9.39453 99.717 9.39453Z" fill="#1F555B"/>
<path d="M100.813 9.94922C100.758 9.94922 100.704 9.92415 100.668 9.8765C100.608 9.79526 100.623 9.67941 100.703 9.61772L101.51 8.99311C101.589 8.93142 101.703 8.94771 101.764 9.02846C101.824 9.1092 101.809 9.22555 101.728 9.28698L100.921 9.91186C100.889 9.93669 100.85 9.94922 100.813 9.94922Z" fill="#1F555B"/>
<path d="M102.018 11.4492L101.97 11.4427L100.993 11.1656C100.897 11.1381 100.841 11.0363 100.867 10.9382C100.895 10.8402 100.994 10.7828 101.09 10.8101L102.067 11.0874C102.163 11.1147 102.22 11.216 102.192 11.3146C102.17 11.3961 102.098 11.4492 102.018 11.4492Z" fill="#1F555B"/>
<path d="M100.599 13.0605C100.527 13.0605 100.458 13.0167 100.43 12.944L100.057 11.9843C100.019 11.8896 100.065 11.7822 100.158 11.7446C100.251 11.707 100.356 11.7534 100.393 11.8482L100.766 12.8078C100.804 12.9028 100.758 13.0094 100.665 13.0475C100.643 13.056 100.621 13.0605 100.599 13.0605Z" fill="#1F555B"/>
<path d="M98.4814 12.8809C98.4501 12.8809 98.4179 12.8718 98.3881 12.854C98.3027 12.8016 98.2752 12.6883 98.3269 12.601L98.8509 11.7167C98.9026 11.6294 99.0138 11.6016 99.0994 11.6543C99.1851 11.7072 99.2124 11.8205 99.1605 11.9077L98.6369 12.7913C98.6024 12.849 98.5429 12.8809 98.4814 12.8809Z" fill="#1F555B"/>
<path d="M97.3411 11.0547C97.2496 11.0547 97.1716 10.9842 97.1612 10.8892C97.1511 10.7887 97.2225 10.6976 97.3217 10.6866L98.3303 10.5773C98.4299 10.5673 98.5187 10.6397 98.5293 10.7408C98.5402 10.8421 98.4676 10.9333 98.3682 10.9441L97.361 11.0534L97.3411 11.0547Z" fill="#1F555B"/>
<path d="M98.7734 9.77734C98.7252 9.77734 98.6772 9.75829 98.6416 9.71942L97.9464 8.96774C97.878 8.89352 97.8817 8.77693 97.9543 8.70723C98.0266 8.63753 98.1411 8.64079 98.2097 8.71476L98.9051 9.46644C98.9735 9.54041 98.9708 9.65724 98.8977 9.72694C98.8625 9.76104 98.818 9.77734 98.7734 9.77734Z" fill="#1F555B"/>
<path d="M100.898 52.0293C100.798 52.0293 100.717 51.9468 100.717 51.845V50.8122C100.717 50.7104 100.798 50.6282 100.898 50.6282C100.999 50.6282 101.079 50.7104 101.079 50.8122V51.845C101.079 51.9468 100.999 52.0293 100.898 52.0293Z" fill="#F78D83"/>
<path d="M101.994 52.584C101.939 52.584 101.885 52.5592 101.849 52.5113C101.789 52.4303 101.804 52.3144 101.884 52.253L102.691 51.6282C102.771 51.567 102.884 51.5826 102.945 51.6636C103.005 51.7446 102.99 51.8606 102.91 51.9221L102.103 52.5469C102.07 52.572 102.032 52.584 101.994 52.584Z" fill="#F78D83"/>
<path d="M103.2 54.084L103.151 54.077L102.175 53.8002C102.078 53.7724 102.022 53.6708 102.048 53.5731C102.076 53.475 102.175 53.4174 102.272 53.4449L103.248 53.722C103.345 53.7495 103.401 53.8508 103.374 53.9494C103.352 54.0306 103.279 54.084 103.2 54.084Z" fill="#F78D83"/>
<path d="M101.78 55.6953C101.708 55.6953 101.64 55.6514 101.612 55.5785L101.238 54.6191C101.201 54.5238 101.246 54.4168 101.339 54.3794C101.432 54.3413 101.537 54.3882 101.574 54.483L101.948 55.4426C101.985 55.5373 101.939 55.6442 101.846 55.682L101.78 55.6953Z" fill="#F78D83"/>
<path d="M99.6627 55.5156C99.6312 55.5156 99.5989 55.5066 99.5694 55.4888C99.484 55.4361 99.4567 55.3228 99.5081 55.2358L100.032 54.3514C100.084 54.2641 100.195 54.2363 100.281 54.2887C100.366 54.3416 100.394 54.4547 100.342 54.5422L99.8179 55.4259C99.7837 55.4838 99.7244 55.5156 99.6627 55.5156Z" fill="#F78D83"/>
<path d="M98.5222 53.6895C98.4309 53.6895 98.3526 53.619 98.3423 53.524C98.3322 53.4234 98.4041 53.3324 98.5032 53.3216L99.5113 53.212C99.6115 53.202 99.6996 53.2747 99.7104 53.3758C99.721 53.4771 99.6489 53.5678 99.5495 53.5786L98.5419 53.6884L98.5222 53.6895Z" fill="#F78D83"/>
<path d="M99.9548 52.4121C99.9063 52.4121 99.8588 52.3926 99.8226 52.3534L99.1278 51.602C99.0591 51.5275 99.0628 51.4117 99.1356 51.3418C99.208 51.272 99.3224 51.2751 99.3911 51.349L100.086 52.101C100.155 52.1747 100.152 52.2915 100.079 52.3615C100.044 52.3953 99.9993 52.4121 99.9548 52.4121Z" fill="#F78D83"/>
<path d="M101.712 24.8672C102.588 24.8672 102.588 23.4822 101.712 23.4822C100.835 23.4822 100.835 24.8672 101.712 24.8672Z" fill="#F79210"/>
<path d="M86.1273 15.8184C87.0038 15.8184 87.0038 14.4335 86.1273 14.4335C85.2509 14.4335 85.2509 15.8184 86.1273 15.8184Z" fill="#F79210"/>
<path d="M127.988 11.2031C128.865 11.2031 128.865 9.8183 127.988 9.8183C127.112 9.8183 127.112 11.2031 127.988 11.2031Z" fill="#F79210"/>
<path d="M116.934 58.6602C117.81 58.6602 117.81 57.2748 116.934 57.2748C116.057 57.2748 116.057 58.6602 116.934 58.6602Z" fill="#F79210"/>
<path d="M95.7317 21.3125C97.4843 21.3125 97.4843 18.5426 95.7317 18.5426C93.979 18.5426 93.979 21.3125 95.7317 21.3125Z" fill="#F79210"/>
<path d="M117.84 7.64844C119.593 7.64844 119.593 4.8786 117.84 4.8786C116.087 4.8786 116.087 7.64844 117.84 7.64844Z" fill="#F79210"/>
<path d="M127.806 57.5059C129.56 57.5059 129.56 54.7363 127.806 54.7363C126.054 54.7363 126.054 57.5059 127.806 57.5059Z" fill="#F79210"/>
<path d="M82.1404 56.9531C83.8933 56.9531 83.8933 54.1832 82.1404 54.1832C80.3878 54.1832 80.3878 56.9531 82.1404 56.9531Z" fill="#F79210"/>
<path d="M128.178 65.2046C143.324 65.256 158.47 65.256 173.616 65.1968C174.183 65.1943 174.183 64.2992 173.616 64.301C158.47 64.3604 143.324 64.3609 128.178 64.309C127.611 64.3075 127.611 65.2021 128.178 65.2046Z" fill="#465BB3"/>
<path d="M118.545 65.1953C120.458 65.1953 122.37 65.1953 124.284 65.1953C124.85 65.1953 124.85 64.2994 124.284 64.2994C122.37 64.2994 120.458 64.2994 118.545 64.2994C117.979 64.2994 117.979 65.1953 118.545 65.1953Z" fill="#465BB3"/>
<path d="M130.217 64.9136C130.137 65.1109 130.358 64.6471 130.399 64.5736C130.604 64.2088 130.859 63.883 131.144 63.5812C132.147 62.5225 133.522 62.2755 134.891 62.6133C135.089 62.6614 135.279 62.5812 135.388 62.4067C136.5 60.6091 138.268 59.0485 140.184 58.2266C141.708 57.5721 143.647 57.3693 145.241 57.8703C145.609 57.9861 145.952 58.1857 146.225 58.4615C146.303 58.5403 146.475 58.8765 146.419 58.718C146.61 59.2561 147.461 59.0237 147.266 58.4793C146.442 56.1723 142.556 56.6068 140.847 57.0536C138.332 57.7108 136.002 59.737 134.629 61.9546C134.794 61.8859 134.959 61.8184 135.125 61.7492C132.702 61.151 130.342 62.3167 129.369 64.6751C129.151 65.2075 130.001 65.4366 130.217 64.9136Z" fill="#465BB3"/>
<path d="M145.786 60.6447C148.149 57.1407 151.949 54.1616 156.025 53.1943C158.34 52.6447 160.447 53.5303 161.511 55.7095C162.09 56.8962 162.559 59.0062 161.725 60.1927C161.416 60.631 162.059 61.0454 162.414 60.7348C163.023 60.2034 163.758 59.7819 164.503 59.4888C165.419 59.1263 167.708 58.8715 167.772 60.3737C167.813 61.3548 166.961 62.3951 166.393 63.103C166.017 63.5704 165.61 64.0182 165.176 64.4299C164.761 64.8251 165.384 65.4569 165.798 65.063C167.045 63.8783 169.155 61.6758 168.55 59.7556C168.086 58.2838 166.081 58.1664 164.867 58.438C163.753 58.6872 162.655 59.3482 161.794 60.1024C162.023 60.2829 162.254 60.4635 162.484 60.6447C163.439 59.2867 163.009 57.0517 162.436 55.6397C161.532 53.4079 159.576 52.0752 157.201 52.1367C154.02 52.2172 150.919 54.2201 148.579 56.2583C147.263 57.4052 146.012 58.7336 145.028 60.1927C144.706 60.6703 145.468 61.1171 145.786 60.6447Z" fill="#465BB3"/>
<path d="M108.813 91.5215C108.713 91.5215 108.632 91.4387 108.632 91.3372V90.305C108.632 90.2027 108.713 90.1199 108.813 90.1199C108.913 90.1199 108.994 90.2027 108.994 90.305V91.3372C108.994 91.4387 108.913 91.5215 108.813 91.5215Z" fill="#F7C909"/>
<path d="M109.908 92.0742C109.854 92.0742 109.799 92.0491 109.764 92.0017C109.704 91.9205 109.719 91.8049 109.799 91.7432L110.606 91.1181C110.686 91.0564 110.799 91.0732 110.86 91.1534C110.92 91.2342 110.905 91.3508 110.825 91.412L110.018 92.0369C109.985 92.0619 109.946 92.0742 109.908 92.0742Z" fill="#F7C909"/>
<path d="M111.114 93.5762L111.066 93.5699L110.089 93.2921C109.993 93.2653 109.937 93.1635 109.963 93.0654C109.99 92.9669 110.09 92.9102 110.186 92.9371L111.162 93.2149C111.259 93.2417 111.316 93.3435 111.288 93.442C111.266 93.5228 111.194 93.5762 111.114 93.5762Z" fill="#F7C909"/>
<path d="M109.695 95.1855C109.623 95.1855 109.554 95.1414 109.526 95.0695L109.152 94.1091C109.115 94.0141 109.161 93.9067 109.254 93.8696C109.347 93.832 109.451 93.8789 109.489 93.9734L109.862 94.9328C109.9 95.0278 109.854 95.1351 109.761 95.1723C109.739 95.1815 109.717 95.1855 109.695 95.1855Z" fill="#F7C909"/>
<path d="M107.577 95.0078C107.546 95.0078 107.513 94.999 107.484 94.9815C107.399 94.9286 107.371 94.816 107.423 94.7277L107.947 93.8439C107.999 93.7571 108.11 93.7288 108.195 93.7812C108.281 93.8341 108.308 93.9472 108.256 94.0352L107.733 94.9183C107.698 94.976 107.639 95.0078 107.577 95.0078Z" fill="#F7C909"/>
<path d="M106.437 93.1816C106.346 93.1816 106.268 93.1112 106.257 93.0162C106.247 92.9156 106.319 92.8246 106.418 92.8139L107.426 92.7048C107.526 92.694 107.615 92.767 107.625 92.8683C107.636 92.969 107.564 93.0608 107.464 93.0716L106.457 93.1806L106.437 93.1816Z" fill="#F7C909"/>
<path d="M107.87 91.9043C107.821 91.9043 107.773 91.8852 107.737 91.8461L107.042 91.0949C106.974 91.0209 106.978 90.9043 107.05 90.8344C107.123 90.7642 107.237 90.7672 107.306 90.8417L108.001 91.5939C108.07 91.6673 108.066 91.7844 107.994 91.8539C107.959 91.8882 107.914 91.9043 107.87 91.9043Z" fill="#F7C909"/>
<path d="M93.4504 78.5645C93.3505 78.5645 93.2693 78.4822 93.2693 78.3804V77.3473C93.2693 77.2455 93.3505 77.1633 93.4504 77.1633C93.5506 77.1633 93.6313 77.2455 93.6313 77.3473V78.3804C93.6313 78.4822 93.5506 78.5645 93.4504 78.5645Z" fill="#1F555B"/>
<path d="M94.5459 79.1191C94.4913 79.1191 94.4374 79.0941 94.4017 79.0467C94.3412 78.9654 94.3564 78.8493 94.4361 78.7877L95.2432 78.1631C95.3229 78.1014 95.4364 78.1172 95.4972 78.1984C95.5574 78.2786 95.5422 78.3952 95.462 78.4569L94.6551 79.0818C94.6227 79.1069 94.5838 79.1191 94.5459 79.1191Z" fill="#1F555B"/>
<path d="M95.7519 80.6211L95.7034 80.6143L94.727 80.3375C94.6306 80.3097 94.5745 80.2079 94.6008 80.1098C94.6279 80.012 94.7278 79.9546 94.8237 79.9815L95.8001 80.2593C95.8968 80.2861 95.9531 80.3882 95.9261 80.4859C95.9039 80.5677 95.8316 80.6211 95.7519 80.6211Z" fill="#1F555B"/>
<path d="M94.3323 82.2305C94.26 82.2305 94.1921 82.1863 94.1638 82.1139L93.79 81.154C93.7531 81.059 93.7981 80.9519 93.8909 80.9146C93.9841 80.8769 94.089 80.9233 94.1261 81.0179L94.5002 81.9772C94.5373 82.0723 94.4913 82.1791 94.3985 82.2167C94.3769 82.2262 94.3545 82.2305 94.3323 82.2305Z" fill="#1F555B"/>
<path d="M92.2153 82.0508C92.1835 82.0508 92.1513 82.0425 92.1218 82.0245C92.0361 81.972 92.0091 81.8585 92.0605 81.7712L92.5844 80.8868C92.6363 80.8 92.7475 80.7717 92.8331 80.8241C92.9183 80.8775 92.9458 80.9906 92.8939 81.0776L92.37 81.9618C92.3358 82.0189 92.2765 82.0508 92.2153 82.0508Z" fill="#1F555B"/>
<path d="M91.0745 80.2246C90.9832 80.2246 90.9047 80.1547 90.8944 80.0596C90.8846 79.9588 90.9562 79.8676 91.0556 79.8568L92.0637 79.7477C92.1638 79.7375 92.2519 79.8099 92.2628 79.9112C92.2733 80.012 92.2013 80.1038 92.1018 80.1145L91.0942 80.2236L91.0745 80.2246Z" fill="#1F555B"/>
<path d="M92.5071 78.9473C92.4584 78.9473 92.4109 78.9277 92.3749 78.8891L91.6798 78.1379C91.6114 78.0634 91.6149 77.9468 91.6874 77.8769C91.7603 77.8074 91.8745 77.8102 91.9431 77.8846L92.6387 78.6359C92.7071 78.7098 92.7039 78.8269 92.6314 78.8969C92.5962 78.9312 92.5516 78.9473 92.5071 78.9473Z" fill="#1F555B"/>
<path d="M94.6318 121.199C94.5319 121.199 94.4507 121.116 94.4507 121.015V119.982C94.4507 119.88 94.5319 119.798 94.6318 119.798C94.7319 119.798 94.8126 119.88 94.8126 119.982V121.015C94.8126 121.116 94.7319 121.199 94.6318 121.199Z" fill="#F78D83"/>
<path d="M95.7272 121.754C95.6726 121.754 95.6185 121.729 95.583 121.681C95.5225 121.6 95.5377 121.485 95.6177 121.422L96.4245 120.798C96.504 120.737 96.6177 120.752 96.6782 120.834C96.7388 120.914 96.7235 121.03 96.6433 121.092L95.8362 121.717C95.8037 121.742 95.7651 121.754 95.7272 121.754Z" fill="#F78D83"/>
<path d="M96.9332 123.254L96.8845 123.248L95.9083 122.971C95.8116 122.943 95.7555 122.842 95.7821 122.743C95.8089 122.645 95.9088 122.587 96.005 122.615L96.9814 122.892C97.0779 122.919 97.1345 123.021 97.1071 123.119C97.0852 123.201 97.0127 123.254 96.9332 123.254Z" fill="#F78D83"/>
<path d="M95.5134 124.865C95.4413 124.865 95.3734 124.821 95.3451 124.748L94.9713 123.789C94.9342 123.694 94.9797 123.587 95.0725 123.548C95.1655 123.511 95.2703 123.558 95.3075 123.653L95.6812 124.612C95.7184 124.708 95.6726 124.814 95.5798 124.852C95.5579 124.861 95.5358 124.865 95.5134 124.865Z" fill="#F78D83"/>
<path d="M93.3964 124.686C93.3649 124.686 93.3326 124.676 93.3029 124.659C93.2175 124.606 93.1902 124.493 93.2418 124.406L93.7657 123.521C93.8173 123.434 93.9288 123.407 94.0142 123.458C94.0996 123.512 94.1274 123.625 94.0752 123.712L93.5514 124.596C93.5174 124.653 93.4576 124.686 93.3964 124.686Z" fill="#F78D83"/>
<path d="M92.2559 122.859C92.1646 122.859 92.0864 122.789 92.0758 122.694C92.0657 122.594 92.1375 122.502 92.2367 122.492L93.2447 122.383C93.3449 122.373 93.4335 122.446 93.4438 122.546C93.4544 122.648 93.3823 122.739 93.2831 122.749L92.2753 122.858L92.2559 122.859Z" fill="#F78D83"/>
<path d="M93.6884 121.582C93.6399 121.582 93.5922 121.562 93.5563 121.524L92.8614 120.772C92.7927 120.698 92.7964 120.582 92.869 120.512C92.9413 120.442 93.056 120.445 93.1242 120.519L93.8198 121.271C93.8882 121.345 93.885 121.462 93.8124 121.532C93.7773 121.566 93.7327 121.582 93.6884 121.582Z" fill="#F78D83"/>
<path d="M90.8937 96.5703C91.7699 96.5703 91.7699 95.1853 90.8937 95.1853C90.017 95.1853 90.017 96.5703 90.8937 96.5703Z" fill="#F79210"/>
<path d="M79.5113 74.0234C80.388 74.0234 80.388 72.6389 79.5113 72.6389C78.6351 72.6389 78.6351 74.0234 79.5113 74.0234Z" fill="#F79210"/>
<path d="M129.505 124.893C130.381 124.893 130.381 123.508 129.505 123.508C128.628 123.508 128.628 124.893 129.505 124.893Z" fill="#F79210"/>
<path d="M93.8348 138.094C94.7117 138.094 94.7117 136.709 93.8348 136.709C92.9584 136.709 92.9584 138.094 93.8348 138.094Z" fill="#F79210"/>
<path d="M118.12 92.0742C119.873 92.0742 119.873 89.3043 118.12 89.3043C116.367 89.3043 116.367 92.0742 118.12 92.0742Z" fill="#F79210"/>
<path d="M105.563 71.0449C107.316 71.0449 107.316 68.275 105.563 68.275C103.81 68.275 103.81 71.0449 105.563 71.0449Z" fill="#F79210"/>
<path d="M113.727 139.717C115.479 139.717 115.479 136.947 113.727 136.947C111.974 136.947 111.974 139.717 113.727 139.717Z" fill="#F79210"/>
<path d="M76.5359 130.529C78.2889 130.529 78.2889 127.759 76.5359 127.759C74.7833 127.759 74.7833 130.529 76.5359 130.529Z" fill="#F79210"/>
<path d="M127.058 94.9807L156.143 76.6994L171.048 89.0721L136.803 110.641L127.058 94.9807Z" fill="#465BB3"/>
<path d="M136.803 110.641L140.146 108.536C139.11 106.282 138.411 103.059 138.657 97.615C138.88 92.6637 137.963 90.0888 136.976 88.7474L127.058 94.9807L136.803 110.641Z" fill="#EFF03F"/>
<path d="M119.583 99.2284L127.058 94.9811L137.659 112.017L129.505 116.518L119.583 99.2284Z" fill="#1E2C3D"/>
<path d="M35.8617 78.9246C35.8617 78.9246 69.3976 97.8332 74.7321 99.2293C80.0669 100.626 94.3375 100.037 95.6625 101.284C96.9878 102.531 115.879 120.708 115.879 120.708C115.879 120.708 117.34 122.304 115.879 123.896C114.419 125.486 112.822 124.378 112.822 124.378C112.822 124.378 113.077 126.178 111.751 127.183C110.426 128.187 108.2 127.078 108.2 127.078C108.2 127.078 108.744 129.526 106.875 130.414C105.007 131.303 103.41 130.12 103.41 130.12C103.41 130.12 103.795 132.053 101.371 132.838C98.9474 133.623 96.773 130.945 96.773 130.945L80.667 118.665C80.667 118.665 73.4184 114.465 67.4383 113.818C61.4581 113.171 33.9134 103.615 33.9134 103.615L35.8617 78.9246Z" fill="#F9AA9C"/>
<path d="M97.5557 105.23C100.505 108.023 105.923 112.11 110.12 115.166C104.446 109.709 96.5053 102.075 95.6625 101.282C94.3375 100.036 80.0669 100.625 74.7321 99.2278C72.0801 98.5335 62.458 93.5112 53.4516 88.6351C52.0754 91.069 50.2683 94.1504 50.2683 94.1504L50.631 93.67C50.631 93.67 70.2814 103.091 77.5812 103.884C80.1855 104.166 82.8038 103.784 85.3335 103.401C89.8949 102.712 94.1689 102.023 97.5557 105.23Z" fill="#FBC5BB"/>
<path d="M73.0569 98.6247C73.0569 98.6247 70.4113 101.306 69.4803 105.698C69.4753 105.721 69.4707 105.744 69.4657 105.768C68.5482 110.199 68.0726 104.243 68.0726 104.192C68.0726 104.14 68.2426 102.599 68.2596 102.548C68.2763 102.495 68.9188 101.526 69.1668 101.145C69.4148 100.764 70.3828 99.8985 70.4512 99.8295C70.5191 99.7598 71.0117 99.2408 71.1815 98.9988C71.3515 98.7559 72.8001 98.5164 72.8001 98.5164L73.0569 98.6247Z" fill="#E3992B"/>
<path d="M69.964 97.2215C69.964 97.2215 64.2668 103.753 65.0146 113.424L67.7652 113.857C67.7652 113.857 67.3346 105.443 72.8 98.5158L69.964 97.2215Z" fill="#77CD7C"/>
<path d="M70.4406 114.144C69.9652 112.483 69.8326 110.923 69.8486 109.629C69.2893 109.654 68.7295 109.676 68.1698 109.694C68.1024 109.931 68.0492 110.151 68.0369 110.294C67.9968 110.749 67.8851 111.914 67.8947 111.967C67.9038 112.022 68.4746 113.459 68.4988 113.504C68.5037 113.513 68.6306 113.712 68.8206 113.992C69.3853 114.118 69.9483 114.253 70.5115 114.393C70.4955 114.335 70.4783 114.275 70.4603 114.213C70.4537 114.191 70.447 114.168 70.4406 114.144Z" fill="#E3992B"/>
<path d="M69.6663 109.638C68.6301 109.683 67.594 109.715 66.5564 109.728C66.5234 110.821 66.5576 112.135 66.7412 113.592C67.8479 113.766 68.9382 114.01 70.0265 114.273C69.7792 112.852 69.6321 111.291 69.6663 109.638Z" fill="#77CD7C"/>
<path d="M68.1262 113.906C67.8565 113.894 67.5928 113.86 67.3359 113.806C67.3708 113.811 67.4045 113.814 67.4382 113.818C67.5261 113.828 67.6144 113.838 67.703 113.849L67.7653 113.858C67.7653 113.858 67.7653 113.858 67.765 113.856C67.8853 113.872 68.0052 113.888 68.1262 113.906Z" fill="#F9AA9C"/>
<path d="M68.3526 113.91C68.2768 113.91 68.2013 113.908 68.1262 113.905C68.0052 113.887 67.8853 113.87 67.765 113.855C67.7648 113.847 67.7635 113.819 67.7621 113.771C67.9889 113.815 68.2156 113.861 68.4414 113.909C68.4119 113.91 68.3824 113.91 68.3526 113.91ZM67.703 113.847C67.6144 113.836 67.5261 113.826 67.4383 113.816C67.4046 113.812 67.3708 113.809 67.3359 113.804C67.2685 113.79 67.2013 113.775 67.1351 113.757L67.703 113.847ZM70.276 113.517C69.934 112.091 69.8346 110.758 69.8486 109.629C69.2894 109.654 68.7296 109.675 68.1698 109.693C68.1698 109.693 68.1698 109.693 68.1698 109.693C68.1373 109.694 68.1048 109.695 68.0724 109.696C68.1946 108.925 68.3634 108.076 68.5957 107.177C68.6634 107.32 68.7374 107.405 68.8182 107.405C69.0012 107.405 69.2173 106.967 69.4658 105.766C69.4707 105.743 69.4754 105.72 69.4803 105.697C69.6503 104.894 69.8777 104.149 70.1355 103.467C72.1493 104.119 73.6079 106.039 73.6079 108.307C73.6079 109.264 73.3436 110.155 72.8924 110.919C72.3747 112.087 71.4374 113.02 70.276 113.517ZM64.9641 112.556C63.9831 111.629 63.3692 110.304 63.3692 108.832C63.3692 107.876 63.6335 106.984 64.0847 106.22C64.5481 105.175 65.3468 104.318 66.3418 103.793C65.4759 106.197 64.8323 109.17 64.9641 112.556Z" fill="#F46F5F"/>
<path d="M68.8181 107.406C68.7374 107.406 68.6634 107.321 68.5957 107.179C68.9035 105.986 69.3233 104.705 69.8941 103.397C69.9756 103.419 70.056 103.442 70.1355 103.468C69.8776 104.15 69.6503 104.896 69.4803 105.698C69.4753 105.721 69.4707 105.744 69.4657 105.768C69.2172 106.968 69.0012 107.406 68.8181 107.406Z" fill="#E4641E"/>
<path d="M67.7653 113.857L67.703 113.848L67.1351 113.758C66.3106 113.547 65.568 113.127 64.9641 112.557C64.8323 109.17 65.4759 106.198 66.3418 103.794C67.0251 103.434 67.8012 103.23 68.6245 103.23C69.0632 103.23 69.4889 103.288 69.8942 103.396C69.3233 104.704 68.9035 105.986 68.5957 107.178C68.3634 108.077 68.1946 108.925 68.0723 109.697C67.5672 109.711 67.062 109.722 66.5564 109.729C66.5234 110.822 66.5576 112.136 66.7412 113.592C67.0829 113.646 67.423 113.706 67.7621 113.772C67.7635 113.82 67.7648 113.848 67.765 113.855C67.7653 113.857 67.7653 113.857 67.7653 113.857Z" fill="#56AF55"/>
<path d="M69.9261 113.652C69.7406 112.402 69.637 111.054 69.6663 109.638C69.1675 109.66 68.6688 109.679 68.1698 109.694C68.1698 109.694 68.1698 109.694 68.1698 109.694C68.7296 109.677 69.2893 109.655 69.8486 109.63C69.8346 110.76 69.934 112.092 70.276 113.518C70.1613 113.567 70.045 113.612 69.9261 113.652Z" fill="#E4641E"/>
<path d="M68.4414 113.91C68.2155 113.862 67.9889 113.816 67.7621 113.772C67.423 113.706 67.0829 113.646 66.7412 113.592C66.5576 112.136 66.5234 110.822 66.5564 109.729C67.062 109.722 67.5672 109.712 68.0723 109.697C68.1048 109.696 68.1373 109.695 68.1698 109.694C68.6688 109.679 69.1675 109.66 69.6663 109.638C69.637 111.054 69.7406 112.402 69.9261 113.652C69.4586 113.811 68.9596 113.901 68.4414 113.91Z" fill="#56AF55"/>
<path d="M72.4197 108.437C72.4197 111.242 70.1887 113.516 67.436 113.516C64.6836 113.516 62.4526 111.242 62.4526 108.437C62.4526 105.633 64.6836 103.359 67.436 103.359C70.1887 103.359 72.4197 105.633 72.4197 108.437Z" fill="#1C3034"/>
<path d="M72.1478 108.962C72.1478 111.767 69.9165 114.041 67.1641 114.041C64.4117 114.041 62.1805 111.767 62.1805 108.962C62.1805 106.157 64.4117 103.884 67.1641 103.884C69.9165 103.884 72.1478 106.157 72.1478 108.962Z" fill="#384B6B"/>
<path d="M58.5546 91.3772C58.5546 91.3772 56.1577 103.885 60.5974 115.41L30.6969 102.69V74.0228L58.5546 91.3772Z" fill="#4860B6"/>
<path d="M105.562 110.783C105.072 110.312 104.583 109.842 104.099 109.377C102.851 108.178 101.637 107.011 100.535 105.952C100.535 105.952 100.535 105.952 100.535 105.952C100.536 105.952 100.537 105.952 100.539 105.952C100.714 105.952 105.657 107.884 105.562 110.783Z" fill="#D1ACA2"/>
<path d="M90.1498 115.523C89.2594 115.523 88.7311 115.387 88.7311 115.387C88.7311 115.387 87.5079 113.02 87.6098 112.951C87.7117 112.882 90.8039 110.631 92.7792 109.246C94.7546 107.861 96.0365 107.376 96.1384 107.307C96.1982 107.266 97.6765 106.82 98.9029 106.45C100.704 108.022 103.008 109.843 105.337 111.613C104.799 112.505 103.37 112.761 101.903 112.761C99.9206 112.761 97.8714 112.292 97.8714 112.292C94.7494 115.044 91.8154 115.524 90.1498 115.523ZM104.099 109.377C102.851 108.177 101.637 107.01 100.535 105.952C100.535 105.952 100.535 105.952 100.535 105.952C101.637 107.01 102.851 108.177 104.099 109.377Z" fill="#D07162"/>
<path d="M105.337 111.613C103.008 109.844 100.704 108.022 98.9028 106.45C99.7611 106.191 100.496 105.97 100.535 105.953C101.637 107.011 102.851 108.178 104.099 109.377C104.583 109.843 105.072 110.312 105.562 110.784C105.56 110.84 105.556 110.897 105.55 110.955C105.525 111.206 105.451 111.424 105.337 111.613Z" fill="#D08274"/>
<path d="M119.583 99.2283C119.583 99.2283 112.651 100.568 108.665 100.244C104.678 99.9213 101.054 99.3213 98.3807 101.675C95.708 104.03 85.1069 114.048 85.1069 114.048C85.1069 114.048 86.1942 115.618 88.7311 115.387C91.2682 115.156 97.9732 110.216 97.9732 110.216C97.9732 110.216 101.737 113.632 106.256 111.451L115.879 120.707L125.359 113.505L127.058 112.155L119.583 99.2283Z" fill="#C76558"/>
<path d="M106.256 111.451C106.256 111.451 107.827 110.458 108.574 109.212C108.574 109.212 108.608 111.831 110.375 114.001C112.142 116.171 115.777 117.002 119.107 114.648C122.437 112.293 125.271 111.352 122.121 103.652L127.058 112.155L115.879 120.707L106.256 111.451Z" fill="#A25949"/>
<path d="M97.2594 109.039C93.9524 113.028 87.0682 115.21 86.974 115.241C87.4577 115.377 88.0387 115.45 88.7311 115.388C91.2682 115.156 97.9733 110.217 97.9733 110.217C97.9733 110.217 101.737 113.633 106.256 111.452C101.39 113.067 97.2594 109.039 97.2594 109.039Z" fill="#A25949"/>
<path d="M85.6581 122.471L84.992 121.962L85.6583 122.47C85.6581 122.471 85.6581 122.471 85.6581 122.471Z" fill="#D1ACA2"/>
<path d="M85.6583 122.47L84.992 121.962L84.6027 121.665L84.178 120.033L85.6007 118.959L86.3315 117.252C86.3315 117.252 88.0729 119.143 85.6581 122.471" fill="#D07162"/>
<path d="M94.6628 129.32L93.6072 128.515L93.1825 126.882L94.6052 125.808L95.336 124.102C95.336 124.102 97.0773 125.993 94.6628 129.32Z" fill="#D07162"/>
<path d="M98.2373 132.279L97.1819 131.475L97.1492 131.35C97.409 131.606 97.7914 131.946 98.2592 132.249C98.2518 132.259 98.2446 132.269 98.2373 132.279Z" fill="#D1ACA2"/>
<path d="M98.2592 132.248C97.7914 131.945 97.409 131.605 97.1492 131.349L96.757 129.841L98.1799 128.768L98.9105 127.06C98.9105 127.06 100.641 128.941 98.2592 132.248Z" fill="#D07162"/>
<path d="M90.4062 126.09L89.2131 125.18C89.2131 125.18 89.2131 125.18 89.2131 125.18L90.4062 126.09Z" fill="#D1ACA2"/>
<path d="M90.4063 126.09L89.2131 125.18C89.2304 125.146 90.6339 122.334 90.6339 122.288C90.6339 122.242 92.0949 120.384 92.1289 120.337C92.1628 120.292 93.3282 119.016 93.3282 119.016C93.3835 119.161 95.1303 121.169 90.4063 126.09Z" fill="#D07162"/>
<path d="M80.8887 122.798C81.6074 123.531 82.773 123.53 83.4915 122.798L86.3313 119.904C87.0505 119.172 87.0505 117.985 86.3315 117.252L86.1504 117.068C85.4317 116.335 84.2663 116.335 83.5474 117.068L80.7078 119.962C79.9891 120.693 79.9886 121.881 80.7076 122.613L80.8887 122.798Z" fill="#C76558"/>
<path d="M85.696 125.862C86.4873 126.669 87.7702 126.668 88.5608 125.862L92.9118 121.321C93.7032 120.515 93.7032 119.208 92.9121 118.402L92.7125 118.198C91.9215 117.393 90.6388 117.393 89.8474 118.199L85.4969 122.739C84.7061 123.545 84.7053 124.853 85.4964 125.659L85.696 125.862Z" fill="#C76558"/>
<path d="M90.6208 128.892C91.3395 129.625 92.5054 129.624 93.2241 128.892L96.0633 125.999C96.7826 125.265 96.7826 124.078 96.0636 123.346L95.8825 123.161C95.164 122.429 93.9984 122.429 93.2797 123.161L90.44 126.055C89.7217 126.787 89.721 127.976 90.44 128.707L90.6208 128.892Z" fill="#C76558"/>
<path d="M95.3557 132.001C96.0747 132.734 97.2403 132.734 97.9585 132.001L99.9361 129.854C100.655 129.121 100.655 127.933 99.9363 127.201L99.7555 127.016C99.0365 126.284 97.8714 126.284 97.1524 127.016L95.1749 129.165C94.4564 129.897 94.4556 131.085 95.1746 131.817L95.3557 132.001Z" fill="#C76558"/>
<path d="M100.555 88.7505C100.555 89.8206 99.7035 90.6895 98.6528 90.6895H83.3852C82.3341 90.6895 81.4822 89.8206 81.4822 88.7505V83.2102C81.4822 82.1393 82.3341 81.271 83.3852 81.271H98.6528C99.7035 81.271 100.555 82.1393 100.555 83.2102V88.7505Z" fill="#F9E61B"/>
<path d="M82.2588 80.0849C81.2965 80.0849 80.5137 80.882 80.5137 81.8629V87.4957L80.4992 87.5153L76.3726 93.0056L80.6483 90.1613L80.6825 90.2352C80.9704 90.8518 81.5895 91.2505 82.2588 91.2505H100.038C101.001 91.2505 101.784 90.4526 101.784 89.4723V81.8629C101.784 80.882 101.001 80.0849 100.038 80.0849H82.2588ZM75.7653 93.5801L80.374 87.4478V81.8629C80.374 80.8043 81.2197 79.9423 82.2588 79.9423H100.038C101.078 79.9423 101.924 80.8043 101.924 81.8629V89.4723C101.924 90.5311 101.078 91.3924 100.038 91.3924H82.2588C81.5624 91.3924 80.9165 90.9932 80.592 90.3689L75.7653 93.5801Z" fill="#211C1D"/>
<path d="M82.6921 80.7953C82.6921 80.88 82.6244 80.9492 82.541 80.9492C82.4576 80.9492 82.3894 80.88 82.3894 80.7953C82.3894 80.7098 82.4576 80.6411 82.541 80.6411C82.6244 80.6411 82.6921 80.7098 82.6921 80.7953Z" fill="#262832"/>
<path d="M83.7396 80.7953C83.7396 80.88 83.6714 80.9492 83.588 80.9492C83.5046 80.9492 83.4369 80.88 83.4369 80.7953C83.4369 80.7098 83.5046 80.6411 83.588 80.6411C83.6714 80.6411 83.7396 80.7098 83.7396 80.7953Z" fill="#262832"/>
<path d="M84.7867 80.7953C84.7867 80.88 84.7188 80.9492 84.6354 80.9492C84.552 80.9492 84.4844 80.88 84.4844 80.7953C84.4844 80.7098 84.552 80.6411 84.6354 80.6411C84.7188 80.6411 84.7867 80.7098 84.7867 80.7953Z" fill="#262832"/>
<path d="M99.7151 80.8203H85.3492V80.7733H99.7151V80.8203Z" fill="#211C1D"/>
<path d="M94.5189 84.2793C96.1268 84.2788 97.7348 84.2783 99.3425 84.2778C99.5313 84.2778 99.5313 83.9801 99.3425 83.9801C97.7348 83.9806 96.1268 83.9814 94.5189 83.9819C94.3304 83.9819 94.3304 84.2793 94.5189 84.2793Z" fill="#2C3992"/>
<path d="M91.1663 84.2812C91.8887 84.2802 92.6109 84.2802 93.3333 84.2802C93.5215 84.2802 93.5215 83.9823 93.3333 83.9823C92.6109 83.9823 91.8887 83.9828 91.1663 83.9828C90.9778 83.9828 90.9778 84.2812 91.1663 84.2812Z" fill="#2C3992"/>
<path d="M88.6683 84.2793C89.172 84.2793 89.6757 84.2793 90.1791 84.2793C90.3676 84.2793 90.3676 83.9816 90.1791 83.9816C89.6757 83.9816 89.172 83.9816 88.6683 83.9816C88.4803 83.9816 88.4803 84.2793 88.6683 84.2793Z" fill="#2C3992"/>
<path d="M83.1566 84.2793C84.817 84.2793 86.4774 84.2793 88.1376 84.2793C88.3263 84.2793 88.3263 83.9816 88.1376 83.9816C86.4774 83.9816 84.817 83.9816 83.1566 83.9816C82.9681 83.9816 82.9681 84.2793 83.1566 84.2793Z" fill="#2C3992"/>
<path d="M94.5189 86.4336C96.1268 86.4331 97.7348 86.4326 99.3425 86.4321C99.5313 86.4321 99.5313 86.1337 99.3425 86.1342C97.7348 86.1342 96.1268 86.1357 94.5189 86.1357C94.3304 86.1357 94.3304 86.4336 94.5189 86.4336Z" fill="#2C3992"/>
<path d="M91.1663 86.4355C91.8887 86.4355 92.6109 86.4355 93.3333 86.4355C93.5215 86.4345 93.5215 86.1371 93.3333 86.1371C92.6109 86.1371 91.8887 86.1376 91.1663 86.1376C90.9778 86.1376 90.9778 86.4355 91.1663 86.4355Z" fill="#2C3992"/>
<path d="M88.6683 86.4336C89.172 86.4336 89.6757 86.4336 90.1791 86.4336C90.3676 86.4336 90.3676 86.1357 90.1791 86.1357C89.6757 86.1357 89.172 86.1357 88.6683 86.1357C88.4803 86.1357 88.4803 86.4336 88.6683 86.4336Z" fill="#2C3992"/>
<path d="M83.1566 86.4336C84.817 86.4336 86.4774 86.4336 88.1376 86.4336C88.3263 86.4336 88.3263 86.1357 88.1376 86.1357C86.4774 86.1357 84.817 86.1357 83.1566 86.1357C82.9681 86.1357 82.9681 86.4336 83.1566 86.4336Z" fill="#2C3992"/>
<path d="M111.942 79.8504C111.942 80.9213 112.794 81.7891 113.845 81.7891H129.113C130.163 81.7891 131.015 80.9213 131.015 79.8504V74.3106C131.015 73.2397 130.163 72.3714 129.113 72.3714H113.845C112.794 72.3714 111.942 73.2397 111.942 74.3106V79.8504Z" fill="#F9E61B"/>
<path d="M112.459 71.1862C111.497 71.1862 110.714 71.984 110.714 72.9649V80.5738C110.714 81.5542 111.497 82.352 112.459 82.352H130.239C130.908 82.352 131.527 81.9539 131.815 81.3368L131.849 81.2633L136.125 84.1077L131.998 78.6168L131.984 78.5982V72.9649C131.984 71.984 131.201 71.1862 130.239 71.1862H112.459ZM131.906 81.4704C131.581 82.0953 130.935 82.4945 130.239 82.4945H112.459C111.42 82.4945 110.574 81.6329 110.574 80.5738V72.9649C110.574 71.906 111.42 71.0443 112.459 71.0443H130.239C131.278 71.0443 132.124 71.906 132.124 72.9649V78.5496L136.732 84.6816L131.906 81.4704Z" fill="#211C1D"/>
<path d="M129.805 71.8971C129.805 71.9823 129.873 72.0508 129.957 72.0508C130.04 72.0508 130.108 71.9823 130.108 71.8971C130.108 71.8118 130.04 71.7433 129.957 71.7433C129.873 71.7433 129.805 71.8118 129.805 71.8971Z" fill="#262832"/>
<path d="M128.758 71.8971C128.758 71.9823 128.826 72.0508 128.91 72.0508C128.993 72.0508 129.061 71.9823 129.061 71.8971C129.061 71.8118 128.993 71.7433 128.91 71.7433C128.826 71.7433 128.758 71.8118 128.758 71.8971Z" fill="#262832"/>
<path d="M127.711 71.8971C127.711 71.9823 127.779 72.0508 127.862 72.0508C127.946 72.0508 128.014 71.9823 128.014 71.8971C128.014 71.8118 127.946 71.7433 127.862 71.7433C127.779 71.7433 127.711 71.8118 127.711 71.8971Z" fill="#262832"/>
<path d="M112.782 71.9219H127.149V71.8746H112.782V71.9219Z" fill="#211C1D"/>
<path d="M117.979 75.3828C116.371 75.3823 114.763 75.3818 113.155 75.3813C112.967 75.3813 112.967 75.0835 113.155 75.0835C114.763 75.084 116.371 75.0845 117.979 75.085C118.167 75.085 118.167 75.3828 117.979 75.3828Z" fill="#2C3992"/>
<path d="M121.331 75.3828C120.609 75.3828 119.887 75.3823 119.164 75.3823C118.976 75.3823 118.976 75.0844 119.164 75.0844C119.887 75.0844 120.609 75.0844 121.331 75.0849C121.52 75.0849 121.52 75.3828 121.331 75.3828Z" fill="#2C3992"/>
<path d="M123.829 75.3809C123.326 75.3809 122.822 75.3809 122.318 75.3809C122.13 75.3809 122.13 75.0831 122.318 75.0831C122.822 75.0831 123.326 75.0831 123.829 75.0831C124.017 75.0831 124.017 75.3809 123.829 75.3809Z" fill="#2C3992"/>
<path d="M129.341 75.3809C127.681 75.3809 126.02 75.3809 124.36 75.3809C124.172 75.3809 124.172 75.0831 124.36 75.0831C126.02 75.0831 127.681 75.0831 129.341 75.0831C129.529 75.0831 129.529 75.3809 129.341 75.3809Z" fill="#2C3992"/>
<path d="M117.979 77.5352C116.371 77.5352 114.763 77.5347 113.155 77.5342C112.967 77.5342 112.967 77.2358 113.155 77.2358C114.763 77.2368 116.371 77.2373 117.979 77.2378C118.167 77.2378 118.167 77.5352 117.979 77.5352Z" fill="#2C3992"/>
<path d="M121.331 77.5371C120.609 77.5371 119.887 77.5366 119.164 77.5366C118.976 77.5366 118.976 77.2386 119.164 77.2391C119.887 77.2391 120.609 77.2391 121.331 77.2396C121.52 77.2396 121.52 77.5371 121.331 77.5371Z" fill="#2C3992"/>
<path d="M123.829 77.5352C123.326 77.5352 122.822 77.5352 122.318 77.5352C122.13 77.5352 122.13 77.2369 122.318 77.2369C122.822 77.2369 123.326 77.2369 123.829 77.2369C124.017 77.2369 124.017 77.5352 123.829 77.5352Z" fill="#2C3992"/>
<path d="M129.341 77.5352C127.681 77.5352 126.02 77.5352 124.36 77.5352C124.172 77.5352 124.172 77.2369 124.36 77.2369C126.02 77.2369 127.681 77.2369 129.341 77.2369C129.529 77.2369 129.529 77.5352 129.341 77.5352Z" fill="#2C3992"/>
</svg>
